<?xml version="1.0" encoding="UTF-8" standalone="no"?>
<svg
   xmlns:dc="http://purl.org/dc/elements/1.1/"
   xmlns:cc="http://creativecommons.org/ns#"
   xmlns:rdf="http://www.w3.org/1999/02/22-rdf-syntax-ns#"
   xmlns:svg="http://www.w3.org/2000/svg"
   xmlns="http://www.w3.org/2000/svg"
   id="svg2"
   preserveAspectRatio="xMidYMid meet"
   viewBox="0 0 643.000000 222.000000"
   height="222.000000pt"
   width="643.000000pt"
   version="1.0">
  <defs
     id="defs12" />
  <metadata
     id="metadata4">
Created by potrace 1.15, written by Peter Selinger 2001-2017
<rdf:RDF>
  <cc:Work
     rdf:about="">
    <dc:format>image/svg+xml</dc:format>
    <dc:type
       rdf:resource="http://purl.org/dc/dcmitype/StillImage" />
    <dc:title></dc:title>
  </cc:Work>
</rdf:RDF>
</metadata>
  <g
     style="fill:#000000;stroke:none"
     id="g6"
     transform="matrix(0,0.1,0.1,0,210.5,-210.5)">
    <path
       id="path8"
       d="m 5250,2155 -65,-65 440,-440 440,-440 -3033,0 -3032,0 0,-105 0,-105 3032,0 3033,0 -438,-438 C 5387,322 5190,120 5190,115 c 0,-6 24,-34 53,-63 46,-45 58,-52 92,-52 39,0 48,8 568,528 l 527,527 0,50 0,50 -533,533 c -422,422 -537,532 -557,532 -18,0 -45,-19 -90,-65 z" />
  </g>
</svg>
