<?xml version="1.0" encoding="UTF-8" standalone="no"?>
<!-- Created with Inkscape (http://www.inkscape.org/) -->

<svg
   xmlns:dc="http://purl.org/dc/elements/1.1/"
   xmlns:cc="http://creativecommons.org/ns#"
   xmlns:rdf="http://www.w3.org/1999/02/22-rdf-syntax-ns#"
   xmlns:svg="http://www.w3.org/2000/svg"
   xmlns="http://www.w3.org/2000/svg"
   xmlns:sodipodi="http://sodipodi.sourceforge.net/DTD/sodipodi-0.dtd"
   xmlns:inkscape="http://www.inkscape.org/namespaces/inkscape"
   width="800"
   height="600"
   viewBox="0 0 211.66666 158.75"
   version="1.1"
   id="svg8"
   inkscape:version="0.92.3 (2405546, 2018-03-11)"
   sodipodi:docname="demo14-background.svg">
  <defs
     id="defs2" />
  <sodipodi:namedview
     id="base"
     pagecolor="#ffffff"
     bordercolor="#666666"
     borderopacity="1.0"
     inkscape:pageopacity="0.0"
     inkscape:pageshadow="2"
     inkscape:zoom="0.33"
     inkscape:cx="373.95624"
     inkscape:cy="100.03015"
     inkscape:document-units="mm"
     inkscape:current-layer="layer1"
     showgrid="false"
     units="px"
     inkscape:window-width="1360"
     inkscape:window-height="591"
     inkscape:window-x="0"
     inkscape:window-y="0"
     inkscape:window-maximized="1" />
  <metadata
     id="metadata5">
    <rdf:RDF>
      <cc:Work
         rdf:about="">
        <dc:format>image/svg+xml</dc:format>
        <dc:type
           rdf:resource="http://purl.org/dc/dcmitype/StillImage" />
        <dc:title></dc:title>
      </cc:Work>
    </rdf:RDF>
  </metadata>
  <g
     inkscape:label="Calque 1"
     inkscape:groupmode="layer"
     id="layer1"
     transform="translate(0,-138.24998)">
    <rect
       id="rect1"
       width="26.60952"
       height="48.380943"
       x="90.67762"
       y="141.41124"
       style="fill:#cccccc;stroke-width:0.1234453" />
    <ellipse
       style="fill:#ffffff;stroke-width:0.16933331"
       id="rect1-top"
       cx="104.36944"
       cy="151.08743"
       rx="5.5638094"
       ry="5.8057137" />
    <ellipse
       style="fill:#ffffff;stroke-width:0.16933331"
       id="rect1-middle"
       cx="104.12753"
       cy="165.1179"
       rx="5.5638094"
       ry="5.8057137" />
    <ellipse
       style="fill:#ffffff;stroke-width:0.16933331"
       id="rect1-footer"
       cx="104.12753"
       cy="180.116"
       rx="5.5638094"
       ry="5.8057137" />
    <rect
       id="rect2"
       width="26.609522"
       height="48.380947"
       x="170.49696"
       y="239.54759"
       style="fill:#cccccc;stroke-width:0.1234453" />
    <ellipse
       style="fill:#ffffff;stroke-width:0.16933331"
       id="rect2-top"
       cx="184.18877"
       cy="249.22379"
       rx="5.5638099"
       ry="5.8057141" />
    <ellipse
       style="fill:#ffffff;stroke-width:0.16933331"
       id="rect2-middle"
       cx="183.94685"
       cy="263.25424"
       rx="5.5638099"
       ry="5.8057141" />
    <ellipse
       style="fill:#ffffff;stroke-width:0.16933331"
       id="rect2-footer"
       cx="183.94685"
       cy="278.25232"
       rx="5.5638099"
       ry="5.8057141" />
    <rect
       id="rect3"
       width="26.609522"
       height="48.380947"
       x="126.95433"
       y="191.16664"
       style="fill:#cccccc;stroke-width:0.1234453" />
    <ellipse
       style="fill:#ffffff;stroke-width:0.16933331"
       id="rect3-top"
       cx="140.64613"
       cy="200.84285"
       rx="5.5638099"
       ry="5.8057141" />
    <ellipse
       style="fill:#ffffff;stroke-width:0.16933331"
       id="rect3-middle"
       cx="140.40424"
       cy="214.87332"
       rx="5.5638099"
       ry="5.8057141" />
    <ellipse
       style="fill:#ffffff;stroke-width:0.16933331"
       id="rect3-footer"
       cx="140.40422"
       cy="229.87141"
       rx="5.5638099"
       ry="5.8057141" />
    <rect
       style="fill:#cccccc;stroke:#6881b3;stroke-width:0.76498061"
       x="12.986295"
       y="226.05721"
       width="34.424133"
       height="5.7373552"
       rx="0.76498061"
       ry="0.76498061"
       pointer-events="all"
       id="rect4" />
    <rect
       style="fill:#cccccc;stroke:#6881b3;stroke-width:0.76498061"
       x="12.986295"
       y="219.36362"
       width="34.424133"
       height="5.7373552"
       rx="0.76498061"
       ry="0.76498061"
       pointer-events="all"
       id="rect6" />
    <rect
       style="fill:#cccccc;stroke:#6881b3;stroke-width:0.76498061"
       x="12.986295"
       y="212.67004"
       width="34.424133"
       height="5.7373552"
       rx="0.76498061"
       ry="0.76498061"
       pointer-events="all"
       id="rect8" />
    <rect
       style="fill:#cccccc;stroke:#6881b3;stroke-width:0.76498061"
       x="12.986295"
       y="205.97647"
       width="34.424133"
       height="5.7373552"
       rx="0.76498061"
       ry="0.76498061"
       pointer-events="all"
       id="rect10" />
    <rect
       style="fill:#cccccc;stroke:#6881b3;stroke-width:0.76498061"
       x="12.986295"
       y="199.2829"
       width="34.424133"
       height="5.7373552"
       rx="0.76498061"
       ry="0.76498061"
       pointer-events="all"
       id="rect12" />
    <path
       inkscape:connector-curvature="0"
       style="fill:#cccccc;stroke:#6881b3;stroke-width:0.76498061;stroke-miterlimit:10"
       d="m 14.516244,198.51793 8.0323,-4.97239 h 15.299654 l 8.0323,4.97239 z"
       stroke-miterlimit="10"
       pointer-events="all"
       id="path14" />
    <circle
       r="1.5299612"
       style="fill:#ffffff;stroke:none;stroke-width:0.38249031"
       cx="44.350468"
       cy="228.92589"
       pointer-events="all"
       id="ellipse16" />
    <circle
       r="1.5299612"
       style="fill:#ffffff;stroke:none;stroke-width:0.38249031"
       cx="44.224285"
       cy="222.23228"
       pointer-events="all"
       id="ellipse18" />
    <circle
       r="1.5299612"
       style="fill:#ffffff;stroke:none;stroke-width:0.38249031"
       cx="44.350468"
       cy="215.53871"
       pointer-events="all"
       id="ellipse20" />
    <circle
       r="1.5299612"
       style="fill:#ffffff;stroke:none;stroke-width:0.38249031"
       cx="44.350468"
       cy="208.84514"
       pointer-events="all"
       id="ellipse22" />
    <circle
       r="1.5299612"
       style="fill:#ffffff;stroke:none;stroke-width:0.38249031"
       cx="44.350468"
       cy="202.15155"
       pointer-events="all"
       id="ellipse24" />
    <path
       inkscape:connector-curvature="0"
       style="fill:#ffffff;stroke:none;stroke-width:0.38249031"
       d="m 14.89873,231.02961 1.912457,-4.2074 h 1.912441 l -1.912441,4.2074 z m 3.824898,0 1.912458,-4.2074 h 1.912458 l -1.912458,4.2074 z m 3.824916,0 1.912437,-4.2074 h 1.912467 l -1.912467,4.2074 z m 3.824904,0 1.91246,-4.2074 h 1.91246 l -1.91246,4.2074 z m 3.82492,0 1.91247,-4.2074 h 1.91245 l -1.91245,4.2074 z m 3.82492,0 1.91245,-4.2074 h 1.91246 l -1.91246,4.2074 z m -19.124558,-6.69359 1.912457,-4.2074 h 1.912441 l -1.912441,4.2074 z m 3.824898,0 1.912458,-4.2074 h 1.912458 l -1.912458,4.2074 z m 3.824916,0 1.912437,-4.2074 h 1.912467 l -1.912467,4.2074 z m 3.824904,0 1.91246,-4.2074 h 1.91246 l -1.91246,4.2074 z m 3.82492,0 1.91247,-4.2074 h 1.91245 l -1.91245,4.2074 z m 3.82492,0 1.91245,-4.2074 h 1.91246 l -1.91246,4.2074 z m -19.124558,-6.69358 1.912457,-4.20738 h 1.912441 l -1.912441,4.20738 z m 3.824898,0 1.912458,-4.20738 h 1.912458 l -1.912458,4.20738 z m 3.824916,0 1.721197,-4.20738 h 1.912457 l -1.912457,4.20738 z m 3.824904,0 1.91246,-4.20738 h 1.91246 l -1.91246,4.20738 z m 3.82492,0 1.91247,-4.20738 h 1.91245 l -1.91245,4.20738 z m 3.82492,0 1.91245,-4.20738 h 1.91246 l -1.91246,4.20738 z m -19.124558,-6.69358 1.912457,-4.20739 h 1.912441 l -1.912441,4.20739 z m 3.824898,0 1.912458,-4.20739 h 1.912458 l -1.912458,4.20739 z m 3.824916,0 1.912437,-4.20739 h 1.912467 l -1.912467,4.20739 z m 3.824904,0 1.91246,-4.20739 h 1.91246 l -1.91246,4.20739 z m 3.82492,0 1.91247,-4.20739 h 1.91245 l -1.91245,4.20739 z m 3.82492,0 1.91245,-4.20739 h 1.91246 l -1.91246,4.20739 z m -19.124558,-6.69358 1.912457,-4.20739 h 1.912441 l -1.912441,4.20739 z m 3.824898,0 1.912458,-4.20739 h 1.912458 l -1.912458,4.20739 z m 3.824916,0 1.912437,-4.20739 h 1.912467 l -1.912467,4.20739 z m 3.824904,0 1.91246,-4.20739 h 1.91246 l -1.91246,4.20739 z m 3.82492,0 1.91247,-4.20739 h 1.91245 l -1.91245,4.20739 z m 3.82492,0 1.91245,-4.20739 h 1.91246 l -1.91246,4.20739 z"
       pointer-events="all"
       id="path26" />
  </g>
</svg>
