<?xml version="1.0" standalone="no"?>
<!DOCTYPE svg PUBLIC "-//W3C//DTD SVG 20010904//EN"
 "http://www.w3.org/TR/2001/REC-SVG-20010904/DTD/svg10.dtd">
<svg version="1.0" xmlns="http://www.w3.org/2000/svg"
 width="643.000000pt" height="222.000000pt" viewBox="0 0 643.000000 222.000000"
 preserveAspectRatio="xMidYMid meet">
<metadata>
Created by potrace 1.15, written by Peter Selinger 2001-2017
</metadata>
<g transform="translate(0.000000,222.000000) scale(0.100000,-0.100000)"
fill="#000000" stroke="none">
<path d="M5250 2155 l-65 -65 440 -440 440 -440 -3033 0 -3032 0 0 -105 0
-105 3032 0 3033 0 -438 -438 c-240 -240 -437 -442 -437 -447 0 -6 24 -34 53
-63 46 -45 58 -52 92 -52 39 0 48 8 568 528 l527 527 0 50 0 50 -533 533
c-422 422 -537 532 -557 532 -18 0 -45 -19 -90 -65z"/>
</g>
</svg>
