<?xml version="1.0" standalone="no"?>
<!DOCTYPE svg PUBLIC "-//W3C//DTD SVG 20010904//EN"
 "http://www.w3.org/TR/2001/REC-SVG-20010904/DTD/svg10.dtd">
<svg version="1.0" xmlns="http://www.w3.org/2000/svg"
 width="1280.000000pt" height="1280.000000pt" viewBox="0 0 1280.000000 1280.000000"
 preserveAspectRatio="xMidYMid meet">
<metadata>
Created by potrace 1.15, written by Peter Selinger 2001-2017
</metadata>
<g transform="translate(0.000000,1280.000000) scale(0.100000,-0.100000)"
fill="#000000" stroke="none">
<path d="M0 6400 l0 -6400 6400 0 6400 0 0 6400 0 6400 -6400 0 -6400 0 0
-6400z m480 6130 c0 -19 -7 -20 -115 -20 -89 0 -115 3 -115 13 0 24 12 27 122
27 101 0 108 -1 108 -20z m1170 0 c0 -20 -7 -20 -480 -20 -473 0 -480 0 -480
20 0 20 7 20 480 20 473 0 480 0 480 -20z m1170 0 c0 -20 -7 -20 -480 -20
-473 0 -480 0 -480 20 0 20 7 20 480 20 473 0 480 0 480 -20z m1170 0 c0 -20
-7 -20 -480 -20 -473 0 -480 0 -480 20 0 20 7 20 480 20 473 0 480 0 480 -20z
m1170 0 c0 -20 -7 -20 -480 -20 -473 0 -480 0 -480 20 0 20 7 20 480 20 473 0
480 0 480 -20z m1170 0 c0 -20 -7 -20 -480 -20 -473 0 -480 0 -480 20 0 20 7
20 480 20 473 0 480 0 480 -20z m1170 0 c0 -20 -7 -20 -479 -20 -402 0 -480 2
-484 14 -3 8 -3 17 0 20 4 3 222 6 485 6 471 0 478 0 478 -20z m1170 0 c0 -20
-7 -20 -485 -20 -398 0 -485 2 -485 13 0 8 3 17 7 20 3 4 222 7 485 7 471 0
478 0 478 -20z m1170 0 c0 -20 -7 -20 -485 -20 -398 0 -485 2 -485 13 0 8 3
17 7 20 3 4 222 7 485 7 471 0 478 0 478 -20z m1170 0 c0 -20 -7 -20 -479 -20
-402 0 -480 2 -484 14 -3 8 -3 17 0 20 4 3 222 6 485 6 471 0 478 0 478 -20z
m1170 0 c0 -20 -7 -20 -485 -20 -398 0 -485 2 -485 13 0 8 3 17 7 20 3 4 222
7 485 7 471 0 478 0 478 -20z m368 -2 c3 -16 -6 -18 -82 -18 -65 0 -86 3 -86
13 0 24 13 28 89 25 63 -3 76 -6 79 -20z m-12068 -428 l0 -290 -115 0 -115 0
0 290 0 290 115 0 115 0 0 -290z m1170 0 l0 -290 -480 0 -480 0 0 290 0 290
480 0 480 0 0 -290z m1170 0 l0 -290 -480 0 -480 0 0 290 0 290 480 0 480 0 0
-290z m1170 0 l0 -290 -480 0 -480 0 0 290 0 290 480 0 480 0 0 -290z m1170 0
l0 -290 -480 0 -480 0 0 290 0 290 480 0 480 0 0 -290z m1170 0 l0 -290 -480
0 -480 0 0 290 0 290 480 0 480 0 0 -290z m1170 0 l0 -290 -482 0 -483 0 2
287 c2 159 3 289 3 291 0 1 216 2 480 2 l480 0 0 -290z m1170 0 l0 -290 -485
0 -485 0 0 283 c0 156 3 287 7 290 3 4 222 7 485 7 l478 0 0 -290z m1170 0 l0
-290 -485 0 -485 0 0 283 c0 156 3 287 7 290 3 4 222 7 485 7 l478 0 0 -290z
m1170 0 l0 -290 -482 0 -483 0 2 287 c2 159 3 289 3 291 0 1 216 2 480 2 l480
0 0 -290z m1170 0 l0 -290 -485 0 -485 0 0 283 c0 156 3 287 7 290 3 4 222 7
485 7 l478 0 0 -290z m370 0 l0 -290 -85 0 -85 0 0 283 c0 156 3 287 7 290 3
4 42 7 85 7 l78 0 0 -290z m-12070 -705 l0 -296 -112 3 -113 3 -3 280 c-1 154
0 285 3 292 3 9 35 13 115 13 l110 0 0 -295z m1170 0 l0 -295 -480 0 -480 0 0
295 0 295 480 0 480 0 0 -295z m1170 0 l0 -295 -480 0 -480 0 0 295 0 295 480
0 480 0 0 -295z m1170 0 l0 -295 -480 0 -480 0 0 295 0 295 480 0 480 0 0
-295z m1170 0 l0 -295 -480 0 -480 0 0 295 0 295 480 0 480 0 0 -295z m1170 0
l0 -295 -480 0 -480 0 0 295 0 295 480 0 480 0 0 -295z m1170 0 l0 -295 -480
2 -481 3 1 288 c0 158 0 289 0 292 0 3 216 5 480 5 l480 0 0 -295z m1170 0 l0
-295 -482 2 -483 3 -3 280 c-1 154 0 285 3 292 3 10 107 13 485 13 l480 0 0
-295z m1170 0 l0 -295 -482 2 -483 3 -3 280 c-1 154 0 285 3 292 3 10 107 13
485 13 l480 0 0 -295z m1170 0 l0 -295 -480 2 -481 3 1 288 c0 158 0 289 0
292 0 3 216 5 480 5 l480 0 0 -295z m1170 0 l0 -295 -482 2 -483 3 -3 280 c-1
154 0 285 3 292 3 10 107 13 485 13 l480 0 0 -295z m365 0 l0 -290 -80 0 -80
0 -3 280 c-1 154 0 286 3 293 3 9 26 12 82 10 l78 -3 0 -290z m-12065 -700 l0
-296 -112 3 -113 3 -3 280 c-1 154 0 285 3 292 3 9 35 13 115 13 l110 0 0
-295z m1170 0 l0 -295 -480 0 -480 0 0 295 0 295 480 0 480 0 0 -295z m1170 0
l0 -295 -480 0 -480 0 0 295 0 295 480 0 480 0 0 -295z m1170 0 l0 -295 -480
0 -480 0 0 295 0 295 480 0 480 0 0 -295z m1170 0 l0 -295 -480 0 -480 0 0
295 0 295 480 0 480 0 0 -295z m1170 0 l0 -295 -480 0 -480 0 0 295 0 295 480
0 480 0 0 -295z m1170 0 l0 -295 -480 2 -481 3 1 288 c0 158 0 289 0 292 0 3
216 5 480 5 l480 0 0 -295z m1170 0 l0 -295 -482 2 -483 3 -3 280 c-1 154 0
285 3 292 3 10 107 13 485 13 l480 0 0 -295z m1170 0 l0 -295 -482 2 -483 3
-3 280 c-1 154 0 285 3 292 3 10 107 13 485 13 l480 0 0 -295z m1170 0 l0
-295 -480 2 -481 3 1 288 c0 158 0 289 0 292 0 3 216 5 480 5 l480 0 0 -295z
m1170 0 l0 -295 -482 2 -483 3 -3 280 c-1 154 0 285 3 292 3 10 107 13 485 13
l480 0 0 -295z m365 0 l0 -290 -80 0 -80 0 -3 280 c-1 154 0 286 3 293 3 9 26
12 82 10 l78 -3 0 -290z m-12065 -705 l0 -290 -115 0 -115 0 0 290 0 290 115
0 115 0 0 -290z m1170 0 l0 -290 -480 0 -480 0 0 290 0 290 480 0 480 0 0
-290z m1170 0 l0 -290 -480 0 -480 0 0 290 0 290 480 0 480 0 0 -290z m1170 0
l0 -290 -480 0 -480 0 0 290 0 290 480 0 480 0 0 -290z m1170 0 l0 -290 -480
0 -480 0 0 290 0 290 480 0 480 0 0 -290z m1170 0 l0 -290 -480 0 -480 0 0
290 0 290 480 0 480 0 0 -290z m1170 0 l0 -290 -480 2 -481 3 -2 288 -2 287
483 0 482 0 0 -290z m1170 0 l0 -290 -482 2 -483 3 -3 288 -2 287 485 0 485 0
0 -290z m1170 0 l0 -290 -482 2 -483 3 -3 288 -2 287 485 0 485 0 0 -290z
m1170 0 l0 -290 -480 2 -481 3 -2 288 -2 287 483 0 482 0 0 -290z m1170 0 l0
-290 -482 2 -483 3 -3 288 -2 287 485 0 485 0 0 -290z m370 0 l0 -291 -82 3
-83 3 -3 288 -2 287 85 0 85 0 0 -290z m-12070 -700 l0 -290 -115 0 -115 0 0
290 0 290 115 0 115 0 0 -290z m1170 0 l0 -290 -480 0 -480 0 0 290 0 290 480
0 480 0 0 -290z m1170 0 l0 -290 -480 0 -480 0 0 290 0 290 480 0 480 0 0
-290z m1170 0 l0 -290 -480 0 -480 0 0 290 0 290 480 0 480 0 0 -290z m1170 0
l0 -290 -480 0 -480 0 0 290 0 290 480 0 480 0 0 -290z m1170 0 l0 -290 -480
0 -480 0 0 290 0 290 480 0 480 0 0 -290z m1170 0 l0 -290 -480 0 -479 0 -3
290 -3 290 483 0 482 0 0 -290z m1170 0 l0 -290 -485 0 -485 0 0 290 0 290
485 0 485 0 0 -290z m1170 0 l0 -290 -485 0 -485 0 0 290 0 290 485 0 485 0 0
-290z m1170 0 l0 -290 -480 0 -479 0 -3 290 -3 290 483 0 482 0 0 -290z m1170
0 l0 -290 -485 0 -485 0 0 290 0 290 485 0 485 0 0 -290z m370 0 l0 -290 -85
0 -85 0 0 290 0 290 85 0 85 0 0 -290z m-12070 -700 l0 -290 -115 0 -115 0 0
290 0 290 115 0 115 0 0 -290z m1170 0 l0 -290 -480 0 -480 0 0 290 0 290 480
0 480 0 0 -290z m1170 0 l0 -290 -480 0 -480 0 0 290 0 290 480 0 480 0 0
-290z m1170 0 l0 -290 -480 0 -480 0 0 290 0 290 480 0 480 0 0 -290z m1170 0
l0 -290 -480 0 -480 0 0 290 0 290 480 0 480 0 0 -290z m1170 0 l0 -290 -480
0 -480 0 0 290 0 290 480 0 480 0 0 -290z m1170 0 l0 -290 -482 0 -483 0 3
290 3 290 479 0 480 0 0 -290z m1170 0 l0 -290 -485 0 -485 0 0 283 c0 156 3
287 7 290 3 4 222 7 485 7 l478 0 0 -290z m1170 0 l0 -290 -485 0 -485 0 0
290 0 290 485 0 485 0 0 -290z m1170 0 l0 -290 -482 0 -483 0 2 287 c2 159 3
289 3 291 0 1 216 2 480 2 l480 0 0 -290z m1170 0 l0 -290 -485 0 -485 0 0
283 c0 156 3 287 7 290 3 4 222 7 485 7 l478 0 0 -290z m370 0 l0 -290 -85 0
-85 0 0 290 0 290 85 0 85 0 0 -290z m-12070 -700 l0 -290 -115 0 -115 0 0
290 0 290 115 0 115 0 0 -290z m1170 0 l0 -290 -480 0 -480 0 0 290 0 290 480
0 480 0 0 -290z m1170 0 l0 -290 -480 0 -480 0 0 290 0 290 480 0 480 0 0
-290z m1170 0 l0 -290 -480 0 -480 0 0 290 0 290 480 0 480 0 0 -290z m1170 0
l0 -290 -480 0 -480 0 0 290 0 290 480 0 480 0 0 -290z m1170 0 l0 -290 -480
0 -480 0 0 290 0 290 480 0 480 0 0 -290z m1170 0 l0 -290 -482 0 -483 0 2
287 c2 159 3 289 3 291 0 1 216 2 480 2 l480 0 0 -290z m1170 0 l0 -290 -485
0 -485 0 0 283 c0 156 3 287 7 290 3 4 222 7 485 7 l478 0 0 -290z m1170 0 l0
-290 -485 0 -485 0 0 283 c0 156 3 287 7 290 3 4 222 7 485 7 l478 0 0 -290z
m1170 0 l0 -290 -482 0 -483 0 2 287 c2 159 3 289 3 291 0 1 216 2 480 2 l480
0 0 -290z m1170 0 l0 -290 -485 0 -485 0 0 283 c0 156 3 287 7 290 3 4 222 7
485 7 l478 0 0 -290z m370 0 l0 -290 -85 0 -85 0 0 283 c0 156 3 287 7 290 3
4 42 7 85 7 l78 0 0 -290z m-12070 -705 l0 -296 -112 3 -113 3 -3 280 c-1 154
0 285 3 292 3 9 35 13 115 13 l110 0 0 -295z m1170 0 l0 -295 -480 0 -480 0 0
295 0 295 480 0 480 0 0 -295z m1170 0 l0 -295 -480 0 -480 0 0 295 0 295 480
0 480 0 0 -295z m1170 0 l0 -295 -480 0 -480 0 0 295 0 295 480 0 480 0 0
-295z m1170 0 l0 -295 -480 0 -480 0 0 295 0 295 480 0 480 0 0 -295z m1170 0
l0 -295 -480 0 -480 0 0 295 0 295 480 0 480 0 0 -295z m1170 0 l0 -295 -480
2 -481 3 1 288 c0 158 0 289 0 292 0 3 216 5 480 5 l480 0 0 -295z m1170 0 l0
-295 -482 2 -483 3 -3 280 c-1 154 0 285 3 292 3 10 107 13 485 13 l480 0 0
-295z m1170 0 l0 -295 -482 2 -483 3 -3 280 c-1 154 0 285 3 292 3 10 107 13
485 13 l480 0 0 -295z m1170 0 l0 -295 -480 2 -481 3 1 288 c0 158 0 289 0
292 0 3 216 5 480 5 l480 0 0 -295z m1170 0 l0 -295 -482 2 -483 3 -3 280 c-1
154 0 285 3 292 3 10 107 13 485 13 l480 0 0 -295z m365 0 l0 -290 -80 0 -80
0 -3 280 c-1 154 0 286 3 293 3 9 26 12 82 10 l78 -3 0 -290z m-12065 -705 l0
-290 -115 0 -115 0 0 290 0 290 115 0 115 0 0 -290z m1170 0 l0 -290 -480 0
-480 0 0 290 0 290 480 0 480 0 0 -290z m1170 0 l0 -290 -480 0 -480 0 0 290
0 290 480 0 480 0 0 -290z m1170 0 l0 -290 -480 0 -480 0 0 290 0 290 480 0
480 0 0 -290z m1170 0 l0 -290 -480 0 -480 0 0 290 0 290 480 0 480 0 0 -290z
m1170 0 l0 -290 -480 0 -480 0 0 290 0 290 480 0 480 0 0 -290z m1170 0 l0
-290 -480 2 -481 3 -2 288 -2 287 483 0 482 0 0 -290z m1170 0 l0 -290 -482 2
-483 3 -3 288 -2 287 485 0 485 0 0 -290z m1170 0 l0 -290 -482 2 -483 3 -3
288 -2 287 485 0 485 0 0 -290z m1170 0 l0 -290 -480 2 -481 3 -2 288 -2 287
483 0 482 0 0 -290z m1170 0 l0 -290 -482 2 -483 3 -3 288 -2 287 485 0 485 0
0 -290z m370 0 l0 -291 -82 3 -83 3 -3 288 -2 287 85 0 85 0 0 -290z m-12070
-700 l0 -290 -115 0 -115 0 0 290 0 290 115 0 115 0 0 -290z m1170 0 l0 -290
-480 0 -480 0 0 290 0 290 480 0 480 0 0 -290z m1170 0 l0 -290 -480 0 -480 0
0 290 0 290 480 0 480 0 0 -290z m1170 0 l0 -290 -480 0 -480 0 0 290 0 290
480 0 480 0 0 -290z m1170 0 l0 -290 -480 0 -480 0 0 290 0 290 480 0 480 0 0
-290z m1170 0 l0 -290 -480 0 -480 0 0 290 0 290 480 0 480 0 0 -290z m1170 0
l0 -290 -480 2 -481 3 -2 288 -2 287 483 0 482 0 0 -290z m1170 0 l0 -290
-482 2 -483 3 -3 288 -2 287 485 0 485 0 0 -290z m1170 0 l0 -290 -485 0 -485
0 0 290 0 290 485 0 485 0 0 -290z m1170 0 l0 -290 -480 2 -481 3 -2 288 -2
287 483 0 482 0 0 -290z m1170 0 l0 -290 -482 2 -483 3 -3 288 -2 287 485 0
485 0 0 -290z m370 0 l0 -290 -85 0 -85 0 0 290 0 290 85 0 85 0 0 -290z
m-12070 -700 l0 -290 -115 0 -115 0 0 290 0 290 115 0 115 0 0 -290z m1170 0
l0 -290 -480 0 -480 0 0 290 0 290 480 0 480 0 0 -290z m1170 0 l0 -290 -480
0 -480 0 0 290 0 290 480 0 480 0 0 -290z m1170 0 l0 -290 -480 0 -480 0 0
290 0 290 480 0 480 0 0 -290z m1170 0 l0 -290 -480 0 -480 0 0 290 0 290 480
0 480 0 0 -290z m1170 0 l0 -290 -480 0 -480 0 0 290 0 290 480 0 480 0 0
-290z m1170 0 l0 -290 -482 0 -483 0 3 290 3 290 479 0 480 0 0 -290z m1170 0
l0 -290 -485 0 -485 0 0 283 c0 156 3 287 7 290 3 4 222 7 485 7 l478 0 0
-290z m1170 0 l0 -290 -485 0 -485 0 0 290 0 290 485 0 485 0 0 -290z m1170 0
l0 -290 -482 0 -483 0 2 287 c2 159 3 289 3 291 0 1 216 2 480 2 l480 0 0
-290z m1170 0 l0 -290 -485 0 -485 0 0 283 c0 156 3 287 7 290 3 4 222 7 485
7 l478 0 0 -290z m370 0 l0 -290 -85 0 -85 0 0 290 0 290 85 0 85 0 0 -290z
m-12070 -700 l0 -290 -115 0 -115 0 0 290 0 290 115 0 115 0 0 -290z m1170 0
l0 -290 -480 0 -480 0 0 290 0 290 480 0 480 0 0 -290z m1170 0 l0 -290 -480
0 -480 0 0 290 0 290 480 0 480 0 0 -290z m1170 0 l0 -290 -480 0 -480 0 0
290 0 290 480 0 480 0 0 -290z m1170 0 l0 -290 -480 0 -480 0 0 290 0 290 480
0 480 0 0 -290z m1170 0 l0 -290 -480 0 -480 0 0 290 0 290 480 0 480 0 0
-290z m1170 0 l0 -290 -482 0 -483 0 2 287 c2 159 3 289 3 291 0 1 216 2 480
2 l480 0 0 -290z m1170 0 l0 -290 -485 0 -485 0 0 283 c0 156 3 287 7 290 3 4
222 7 485 7 l478 0 0 -290z m1170 0 l0 -290 -485 0 -485 0 0 283 c0 156 3 287
7 290 3 4 222 7 485 7 l478 0 0 -290z m1170 0 l0 -290 -482 0 -483 0 2 287 c2
159 3 289 3 291 0 1 216 2 480 2 l480 0 0 -290z m1170 0 l0 -290 -485 0 -485
0 0 283 c0 156 3 287 7 290 3 4 222 7 485 7 l478 0 0 -290z m370 0 l0 -290
-85 0 -85 0 0 283 c0 156 3 287 7 290 3 4 42 7 85 7 l78 0 0 -290z m-12070
-705 l0 -296 -112 3 -113 3 -3 280 c-1 154 0 285 3 292 3 9 35 13 115 13 l110
0 0 -295z m1170 0 l0 -295 -480 0 -480 0 0 295 0 295 480 0 480 0 0 -295z
m1170 0 l0 -295 -480 0 -480 0 0 295 0 295 480 0 480 0 0 -295z m1170 0 l0
-295 -480 0 -480 0 0 295 0 295 480 0 480 0 0 -295z m1170 0 l0 -295 -480 0
-480 0 0 295 0 295 480 0 480 0 0 -295z m1170 0 l0 -295 -480 0 -480 0 0 295
0 295 480 0 480 0 0 -295z m1170 0 l0 -295 -480 2 -481 3 1 288 c0 158 0 289
0 292 0 3 216 5 480 5 l480 0 0 -295z m1170 0 l0 -295 -482 2 -483 3 -3 280
c-1 154 0 285 3 292 3 10 107 13 485 13 l480 0 0 -295z m1170 0 l0 -295 -482
2 -483 3 -3 280 c-1 154 0 285 3 292 3 10 107 13 485 13 l480 0 0 -295z m1170
0 l0 -295 -480 2 -481 3 1 288 c0 158 0 289 0 292 0 3 216 5 480 5 l480 0 0
-295z m1170 0 l0 -295 -482 2 -483 3 -3 280 c-1 154 0 285 3 292 3 10 107 13
485 13 l480 0 0 -295z m365 0 l0 -290 -80 0 -80 0 -3 280 c-1 154 0 286 3 293
3 9 26 12 82 10 l78 -3 0 -290z m-12065 -705 l0 -290 -115 0 -115 0 0 290 0
290 115 0 115 0 0 -290z m1170 0 l0 -290 -480 0 -480 0 0 290 0 290 480 0 480
0 0 -290z m1170 0 l0 -290 -480 0 -480 0 0 290 0 290 480 0 480 0 0 -290z
m1170 0 l0 -290 -480 0 -480 0 0 290 0 290 480 0 480 0 0 -290z m1170 0 l0
-290 -480 0 -480 0 0 290 0 290 480 0 480 0 0 -290z m1170 0 l0 -290 -480 0
-480 0 0 290 0 290 480 0 480 0 0 -290z m1170 0 l0 -290 -480 2 -481 3 -2 288
-2 287 483 0 482 0 0 -290z m1170 0 l0 -290 -482 2 -483 3 -3 288 -2 287 485
0 485 0 0 -290z m1170 0 l0 -290 -482 2 -483 3 -3 288 -2 287 485 0 485 0 0
-290z m1170 0 l0 -290 -480 2 -481 3 -2 288 -2 287 483 0 482 0 0 -290z m1170
0 l0 -290 -482 2 -483 3 -3 288 -2 287 485 0 485 0 0 -290z m370 0 l0 -291
-82 3 -83 3 -3 288 -2 287 85 0 85 0 0 -290z m-12070 -700 l0 -290 -115 0
-115 0 0 290 0 290 115 0 115 0 0 -290z m1170 0 l0 -290 -480 0 -480 0 0 290
0 290 480 0 480 0 0 -290z m1170 0 l0 -290 -480 0 -480 0 0 290 0 290 480 0
480 0 0 -290z m1170 0 l0 -290 -480 0 -480 0 0 290 0 290 480 0 480 0 0 -290z
m1170 0 l0 -290 -480 0 -480 0 0 290 0 290 480 0 480 0 0 -290z m1170 0 l0
-290 -480 0 -480 0 0 290 0 290 480 0 480 0 0 -290z m1170 0 l0 -290 -480 2
-481 3 -2 288 -2 287 483 0 482 0 0 -290z m1170 0 l0 -290 -482 2 -483 3 -3
288 -2 287 485 0 485 0 0 -290z m1170 0 l0 -290 -482 2 -483 3 -3 288 -2 287
485 0 485 0 0 -290z m1170 0 l0 -290 -480 2 -481 3 -2 288 -2 287 483 0 482 0
0 -290z m1170 0 l0 -290 -482 2 -483 3 -3 288 -2 287 485 0 485 0 0 -290z
m370 0 l0 -290 -85 0 -85 0 0 290 0 290 85 0 85 0 0 -290z m-12070 -700 l0
-290 -115 0 -115 0 0 290 0 290 115 0 115 0 0 -290z m1170 0 l0 -290 -480 0
-480 0 0 290 0 290 480 0 480 0 0 -290z m1170 0 l0 -290 -480 0 -480 0 0 290
0 290 480 0 480 0 0 -290z m1170 0 l0 -290 -480 0 -480 0 0 290 0 290 480 0
480 0 0 -290z m1170 0 l0 -290 -480 0 -480 0 0 290 0 290 480 0 480 0 0 -290z
m1170 0 l0 -290 -480 0 -480 0 0 290 0 290 480 0 480 0 0 -290z m1170 0 l0
-290 -482 0 -483 0 3 290 3 290 479 0 480 0 0 -290z m1170 0 l0 -290 -485 0
-485 0 0 290 0 290 485 0 485 0 0 -290z m1170 0 l0 -290 -485 0 -485 0 0 290
0 290 485 0 485 0 0 -290z m1170 0 l0 -290 -482 0 -483 0 3 290 3 290 479 0
480 0 0 -290z m1170 0 l0 -290 -485 0 -485 0 0 290 0 290 485 0 485 0 0 -290z
m370 0 l0 -290 -85 0 -85 0 0 290 0 290 85 0 85 0 0 -290z m-12070 -700 l0
-290 -115 0 -115 0 0 290 0 290 115 0 115 0 0 -290z m1170 0 l0 -290 -480 0
-480 0 0 290 0 290 480 0 480 0 0 -290z m1170 0 l0 -290 -480 0 -480 0 0 290
0 290 480 0 480 0 0 -290z m1170 0 l0 -290 -480 0 -480 0 0 290 0 290 480 0
480 0 0 -290z m1170 0 l0 -290 -480 0 -480 0 0 290 0 290 480 0 480 0 0 -290z
m1170 0 l0 -290 -480 0 -480 0 0 290 0 290 480 0 480 0 0 -290z m1170 0 l0
-290 -482 0 -483 0 2 287 c2 159 3 289 3 291 0 1 216 2 480 2 l480 0 0 -290z
m1170 0 l0 -290 -485 0 -485 0 0 283 c0 156 3 287 7 290 3 4 222 7 485 7 l478
0 0 -290z m1170 0 l0 -290 -485 0 -485 0 0 283 c0 156 3 287 7 290 3 4 222 7
485 7 l478 0 0 -290z m1170 0 l0 -290 -482 0 -483 0 2 287 c2 159 3 289 3 291
0 1 216 2 480 2 l480 0 0 -290z m1170 0 l0 -290 -485 0 -485 0 0 283 c0 156 3
287 7 290 3 4 222 7 485 7 l478 0 0 -290z m370 0 l0 -290 -85 0 -85 0 0 283
c0 156 3 287 7 290 3 4 42 7 85 7 l78 0 0 -290z m-12070 -515 l0 -106 -112 3
-113 3 -3 89 c-2 49 -1 95 2 103 4 10 33 13 116 13 l110 0 0 -105z m1170 0 l0
-105 -480 0 -480 0 0 105 0 105 480 0 480 0 0 -105z m1170 0 l0 -105 -480 0
-480 0 0 105 0 105 480 0 480 0 0 -105z m1170 0 l0 -105 -480 0 -480 0 0 105
0 105 480 0 480 0 0 -105z m1170 0 l0 -105 -480 0 -480 0 0 105 0 105 480 0
480 0 0 -105z m1170 0 l0 -105 -480 0 -480 0 0 105 0 105 480 0 480 0 0 -105z
m1170 0 l0 -105 -481 2 -481 3 1 98 c0 53 0 99 1 102 0 3 216 5 480 5 l480 0
0 -105z m1170 0 l0 -105 -482 2 -483 3 -3 89 c-2 49 -1 95 2 103 4 11 95 13
486 13 l480 0 0 -105z m1170 0 l0 -105 -482 2 -483 3 -3 89 c-2 49 -1 95 2
103 4 11 95 13 486 13 l480 0 0 -105z m1170 0 l0 -105 -481 2 -481 3 1 98 c0
53 0 99 1 102 0 3 216 5 480 5 l480 0 0 -105z m1170 0 l0 -105 -482 2 -483 3
-3 89 c-2 49 -1 95 2 103 4 11 95 13 486 13 l480 0 0 -105z m365 0 l0 -100
-80 0 -80 0 -3 89 c-2 49 0 96 2 103 4 10 25 13 83 11 l78 -3 0 -100z"/>
</g>
</svg>
