<?xml version="1.0" standalone="no"?>
<!DOCTYPE svg PUBLIC "-//W3C//DTD SVG 20010904//EN"
 "http://www.w3.org/TR/2001/REC-SVG-20010904/DTD/svg10.dtd">
<svg version="1.0" xmlns="http://www.w3.org/2000/svg"
 width="1280.000000pt" height="589.000000pt" viewBox="0 0 1280.000000 589.000000"
 preserveAspectRatio="xMidYMid meet">
<metadata>
Created by potrace 1.15, written by Peter Selinger 2001-2017
</metadata>
<g transform="translate(0.000000,589.000000) scale(0.100000,-0.100000)"
fill="#000000" stroke="none">
<path d="M0 5589 l0 -301 30 4 c27 4 30 2 30 -23 0 -42 38 -79 87 -86 56 -7
135 30 202 94 28 27 51 49 51 49 0 -1 -9 -26 -21 -56 -26 -70 -29 -172 -6
-217 35 -67 94 -81 148 -36 44 37 70 101 76 189 l6 75 29 -53 c59 -108 149
-172 211 -149 26 10 62 51 72 82 6 17 8 17 29 -8 30 -35 56 -26 56 19 0 31 2
33 33 33 25 0 33 5 35 22 2 13 -5 27 -18 36 -22 15 -22 15 -2 26 25 13 35 40
22 56 -7 8 0 18 27 36 39 25 82 97 83 139 1 16 8 4 20 -34 34 -105 110 -156
160 -106 29 29 27 103 -4 163 -13 26 -21 47 -19 47 3 0 17 -8 31 -19 15 -10
37 -21 48 -25 12 -4 30 -17 40 -29 19 -22 19 -22 -2 -4 -11 9 -25 17 -30 17
-11 0 37 -34 51 -36 5 0 36 -2 69 -2 l58 -2 -35 -39 c-58 -64 -58 -133 -2
-147 36 -9 81 13 118 56 l32 38 -3 -52 c-3 -58 22 -119 51 -124 60 -12 101 44
95 128 l-3 48 32 -38 c18 -20 45 -43 61 -49 22 -9 28 -17 25 -32 -7 -26 24
-59 54 -59 13 0 39 7 59 15 l35 14 -16 -22 c-8 -12 -15 -41 -15 -64 0 -80 69
-81 108 -1 l20 38 12 -29 c16 -39 54 -74 76 -69 10 2 25 15 33 29 13 23 13 32
0 71 l-15 45 25 -14 c32 -16 93 -17 109 -1 7 7 12 19 12 28 0 22 -49 67 -83
75 -27 7 -27 8 21 30 47 22 62 39 62 71 0 9 15 30 34 47 33 31 55 86 56 137 1
25 1 25 17 -5 36 -68 105 -115 141 -96 12 6 25 5 42 -5 14 -7 33 -13 44 -14
12 0 16 -5 12 -16 -3 -9 -6 -25 -6 -36 0 -17 -4 -15 -26 12 -21 25 -33 30 -58
28 -26 -3 -32 -8 -34 -32 -2 -17 4 -39 16 -55 l19 -27 -32 4 c-72 8 -105 -52
-45 -83 16 -8 36 -15 44 -15 9 0 4 -10 -15 -30 -33 -33 -36 -66 -6 -84 14 -9
26 -6 55 9 l37 21 -3 -37 c-4 -37 16 -69 43 -69 18 0 55 48 55 71 0 14 5 12
29 -12 33 -33 52 -36 75 -13 19 18 19 24 7 57 -9 22 -6 26 30 40 21 8 42 24
46 34 3 10 18 32 31 48 14 17 37 56 52 88 l26 57 1 -41 c2 -52 28 -130 55
-164 32 -41 90 -65 155 -65 39 0 53 -3 43 -9 -8 -6 -19 -7 -25 -4 -5 4 -7 3
-3 -2 4 -4 -4 -22 -17 -40 -35 -45 -42 -90 -20 -115 32 -36 82 -24 143 33 l32
31 0 -50 c0 -56 27 -108 60 -119 51 -16 97 58 88 140 l-5 43 30 -35 c56 -63
123 -82 151 -41 20 28 20 45 1 82 -8 15 -15 29 -15 30 0 8 73 -5 97 -17 18
-10 40 -17 50 -17 34 0 83 40 104 83 21 42 23 44 72 46 29 1 53 4 55 6 3 2 21
-7 41 -20 44 -31 108 -33 142 -6 16 13 25 33 30 72 3 30 13 69 20 86 10 25 11
42 3 71 l-10 38 44 3 c52 2 93 21 119 54 10 13 36 30 58 37 22 7 55 21 74 31
l33 20 -30 -38 c-76 -97 -94 -191 -46 -240 46 -46 114 -19 173 67 16 25 33 58
37 74 9 36 19 19 28 -45 14 -97 94 -177 151 -151 63 29 76 121 33 230 l-26 62
34 -30 c43 -38 99 -66 147 -75 30 -6 37 -11 37 -31 0 -32 33 -64 66 -64 36 0
85 25 123 62 l32 31 -11 -27 c-22 -58 -9 -157 24 -178 21 -14 63 -8 80 11 24
26 45 88 46 130 l0 35 28 -45 c34 -53 70 -79 110 -79 78 0 81 91 6 179 -24 29
-25 34 -9 27 38 -14 110 -18 135 -6 38 17 68 35 88 53 16 15 19 15 30 -4 19
-30 56 -21 62 15 3 17 8 29 12 28 19 -4 47 15 98 67 l55 56 0 -60 c0 -76 22
-115 65 -115 17 0 38 9 49 21 22 24 37 95 27 134 -6 22 -1 19 37 -19 25 -24
58 -47 76 -51 26 -5 31 -11 31 -34 0 -66 86 -85 179 -39 l49 24 -24 -49 c-34
-67 -31 -141 8 -170 24 -18 30 -18 58 -7 37 15 69 58 91 122 l16 47 12 -49
c14 -56 64 -117 103 -126 21 -5 33 0 54 21 23 23 26 32 22 79 -3 34 -1 53 6
53 55 -1 80 4 66 13 -11 7 -3 10 28 10 36 0 49 6 81 38 105 101 144 135 137
117 -39 -91 -45 -189 -17 -252 21 -46 45 -63 89 -63 72 0 122 82 132 215 4 50
8 81 10 70 1 -11 1 -30 0 -42 -1 -14 11 -36 30 -55 18 -18 29 -26 24 -18 -4 8
11 -2 35 -23 23 -21 53 -43 66 -49 14 -6 22 -14 20 -18 -3 -4 2 -13 10 -20 11
-9 12 -17 4 -31 -8 -15 -5 -24 13 -42 l23 -22 -23 -23 c-20 -19 -22 -26 -11
-38 8 -9 24 -14 39 -12 25 4 27 2 26 -31 -1 -30 3 -37 21 -39 13 -2 27 5 37
20 l16 22 16 -22 c21 -30 52 -29 60 2 3 14 3 30 -1 36 -4 7 2 9 19 4 26 -6 56
9 56 27 0 5 -9 18 -20 29 -19 19 -19 21 -3 26 41 13 61 27 76 54 17 28 17 28
66 15 27 -7 71 -11 99 -10 27 2 56 -1 63 -6 8 -5 10 -9 5 -9 -5 0 -1 -10 10
-22 19 -23 19 -23 -1 -7 -32 25 -53 29 -70 13 -20 -21 -19 -56 4 -86 l19 -24
-33 4 c-88 10 -103 -77 -15 -94 l27 -6 -29 -29 c-32 -32 -34 -65 -5 -83 14 -9
26 -6 55 9 l38 21 -4 -32 c-5 -40 13 -74 38 -74 22 0 60 45 60 71 0 14 5 12
29 -12 16 -16 39 -29 50 -29 28 0 44 32 31 65 -12 32 -6 45 21 45 29 0 59 18
59 36 0 9 15 34 34 56 19 22 43 63 53 91 l18 50 7 -65 c14 -142 108 -231 176
-168 40 38 47 109 19 210 -2 8 -2 12 0 8 3 -5 9 -8 14 -8 6 0 7 5 3 12 -4 7 6
3 22 -9 43 -30 123 -55 156 -48 25 6 28 4 28 -20 0 -39 18 -65 55 -81 62 -25
144 6 231 88 l53 50 -20 -53 c-11 -28 -23 -80 -26 -114 -13 -146 92 -226 178
-134 37 39 61 117 63 198 l1 66 26 -56 c54 -113 160 -190 224 -161 13 6 38 32
54 58 25 42 30 44 35 26 8 -23 39 -37 57 -26 6 3 9 21 7 38 -3 30 -2 31 29 28
46 -6 56 23 19 55 -18 15 -22 23 -12 23 19 0 46 38 39 56 -3 8 -20 14 -41 14
-19 0 -32 3 -28 7 4 4 23 6 42 4 30 -2 41 3 74 38 23 24 46 61 54 89 8 26 15
38 15 27 2 -34 47 -121 76 -143 36 -28 60 -28 90 3 33 32 33 92 0 162 l-24 53
42 -28 c23 -15 52 -39 64 -53 13 -15 33 -27 45 -26 13 0 44 -1 70 -3 l47 -4
-34 -38 c-55 -60 -60 -111 -14 -137 34 -19 78 -2 128 50 l36 36 -3 -56 c-4
-76 24 -124 70 -119 47 5 72 45 73 116 l0 57 29 -33 c16 -18 42 -40 57 -48 22
-11 29 -22 29 -44 0 -47 53 -62 122 -35 16 6 16 4 1 -33 -20 -53 -11 -90 24
-98 22 -6 32 -1 60 29 18 20 33 47 33 59 1 17 5 13 14 -15 25 -68 72 -97 104
-65 16 16 15 77 -1 108 l-14 26 38 -19 c67 -33 119 -10 105 46 -4 19 -21 34
-53 50 l-46 24 29 6 c45 9 84 44 84 75 0 19 9 32 29 44 22 12 34 30 45 69 9
29 16 62 16 73 0 14 8 7 28 -25 36 -57 72 -80 120 -78 20 1 53 -5 73 -12 32
-12 36 -17 28 -37 l-9 -24 -31 26 c-17 14 -36 26 -43 26 -37 0 -48 -62 -17
-101 l19 -24 -39 3 c-46 5 -69 -10 -69 -45 0 -19 8 -28 40 -40 l40 -16 -26
-24 c-36 -33 -31 -77 10 -81 17 -2 39 4 55 16 l26 19 -3 -47 c-3 -33 1 -50 12
-60 24 -19 62 1 76 42 l13 34 28 -28 c46 -47 83 -29 77 38 -3 33 0 37 31 48
19 6 39 20 45 31 6 11 25 40 42 65 18 25 39 61 47 80 l14 35 8 -40 c19 -109
46 -154 116 -199 31 -20 117 -37 125 -25 3 5 10 9 15 9 5 0 -6 -13 -24 -30
-83 -73 -70 -179 20 -162 14 3 45 23 68 46 l43 41 -1 -58 c0 -71 24 -112 69
-112 l29 0 3 343 c2 310 1 343 -14 349 -9 3 -24 1 -34 -5 -13 -8 -32 -3 -85
24 l-67 34 48 -1 c35 -1 42 -3 25 -8 -22 -6 -22 -7 13 -24 47 -22 74 -23 56
-2 -11 13 -8 13 24 0 l37 -16 -3 128 -3 128 -80 -1 c-62 0 -89 -5 -122 -22
-57 -30 -62 -28 -27 11 68 73 80 67 -150 67 l-207 0 17 -32 16 -33 -34 33 -34
32 -661 0 -660 0 -23 -43 c-20 -37 -27 -43 -50 -39 -22 3 -26 8 -23 27 3 12
18 29 36 38 31 15 28 16 -93 16 -110 1 -129 -2 -160 -20 -19 -12 -29 -15 -22
-8 6 7 12 17 12 21 0 4 -68 8 -151 8 -97 0 -148 -4 -144 -10 3 -5 2 -10 -4
-10 -5 0 -13 5 -16 10 -8 13 -215 13 -215 1 0 -5 -9 -13 -20 -16 -12 -4 -45
-31 -75 -60 -30 -29 -55 -53 -55 -52 0 1 9 26 20 55 32 85 36 82 -95 82 l-115
0 0 -47 -1 -48 -23 45 -23 45 -1837 2 c-1631 3 -1837 1 -1826 -12 7 -8 21 -15
32 -15 28 0 68 -29 61 -46 -4 -11 -10 -9 -29 11 -13 14 -28 25 -33 25 -19 0
-32 -37 -21 -64 8 -23 7 -24 -13 -17 -15 6 -21 16 -20 31 6 50 -48 90 -121 90
-35 -1 -39 -2 -24 -13 15 -12 12 -17 -31 -54 l-48 -42 13 37 c25 70 23 72 -66
72 l-80 0 0 -42 0 -43 -26 43 -25 42 -992 0 c-944 0 -995 -1 -1048 -19 -31
-11 -72 -27 -90 -36 l-34 -17 28 29 c15 16 27 32 27 36 0 4 -84 7 -186 7 -176
0 -186 -1 -173 -17 13 -17 13 -17 -7 0 -17 14 -42 17 -158 17 -89 0 -135 -4
-131 -10 4 -6 -7 -10 -27 -10 -25 0 -29 3 -18 10 10 6 -170 10 -518 10 l-532
0 -17 -35 c-11 -23 -22 -34 -31 -30 -7 3 -20 5 -28 5 -17 0 -10 40 10 52 6 4
-45 8 -114 8 -87 0 -130 -4 -139 -12 -11 -10 -12 -10 -7 -1 5 10 -50 13 -257
13 l-265 0 -45 -35 c-25 -19 -59 -51 -76 -72 l-32 -38 19 45 c11 25 22 57 26
73 l6 27 -115 0 -115 0 0 -47 -1 -48 -21 48 -21 47 -218 0 -219 0 0 -301z
m11940 261 c0 -4 -17 -8 -37 -8 l-38 0 30 13 c30 12 45 11 45 -5z m-10073 -47
c-3 -10 -5 -4 -5 12 0 17 2 24 5 18 2 -7 2 -21 0 -30z m4308 29 c-6 -4 -24
-20 -41 -35 l-31 -27 5 29 c3 25 10 31 36 34 17 2 33 5 36 5 2 1 0 -1 -5 -6z
m375 -17 c29 -31 51 -34 24 -3 -11 13 -3 9 21 -10 22 -17 61 -37 87 -43 l46
-13 -56 -23 c-31 -12 -57 -21 -57 -20 -1 1 -7 17 -14 34 -8 18 -31 49 -52 68
-22 19 -35 35 -31 35 5 0 19 -11 32 -25z m4497 -22 c-3 -10 -5 -2 -5 17 0 19
2 27 5 18 2 -10 2 -26 0 -35z m-6390 -14 c-43 -5 -55 -3 -72 13 -11 11 -15 18
-10 17 21 -3 36 1 31 10 -3 4 19 -1 48 -13 l54 -21 -51 -6z m796 -57 c-1 -2
-11 2 -23 8 -39 21 -126 17 -158 -7 -27 -20 -32 -21 -68 -8 -32 12 -35 14 -14
15 43 0 144 30 170 49 l25 19 35 -37 c19 -20 34 -37 33 -39z m-3126 62 c-3 -3
-12 -4 -19 -1 -8 3 -5 6 6 6 11 1 17 -2 13 -5z m-805 -33 c2 -17 1 -28 -4 -25
-15 10 -8 -13 13 -40 l21 -27 -35 24 c-19 13 -57 30 -83 37 l-48 14 54 12 c42
9 57 9 63 1 6 -8 7 -6 4 5 -5 13 0 28 9 28 1 0 4 -13 6 -29z m747 0 c-13 -11
-28 -17 -32 -14 -5 3 2 11 15 18 35 20 43 17 17 -4z m8431 -55 c-6 -6 -2 -19
13 -35 l22 -25 -30 23 c-36 27 -89 51 -119 52 -11 0 0 6 25 13 25 7 54 18 65
24 16 9 20 7 26 -16 4 -15 3 -31 -2 -36z m-7775 39 l40 -14 -47 -1 c-25 0 -55
-3 -65 -7 -12 -4 -10 0 7 15 14 12 25 21 25 22 0 0 18 -7 40 -15z m8545 11 c0
-2 -12 -11 -27 -20 l-28 -17 24 20 c23 21 31 25 31 17z m-8755 -36 c-3 -5 -1
-11 5 -15 5 -3 10 -1 10 4 0 6 22 11 52 11 l51 0 -48 -25 c-27 -13 -49 -23
-50 -22 0 1 -13 16 -29 34 -26 28 -26 31 -7 26 11 -3 19 -9 16 -13z m3198 -26
c-10 -7 -43 -13 -73 -14 l-55 0 50 29 c46 26 51 27 72 13 22 -14 22 -15 6 -28z
m6197 21 l35 -13 -45 -1 c-25 -1 -56 -4 -70 -6 -23 -5 -23 -5 -4 4 12 5 25 14
29 20 8 13 11 13 55 -4z m-213 -27 c-6 -4 15 -5 48 -2 45 3 54 2 37 -5 -12 -6
-30 -8 -40 -5 -12 4 -13 3 -4 -3 10 -8 10 -12 -3 -23 -14 -11 -18 -10 -31 9
-9 12 -25 31 -36 41 -21 19 -21 19 10 8 20 -8 27 -15 19 -20z m-9697 -26 c0
-31 26 -62 52 -62 22 0 23 4 -6 -53 l-24 -47 -7 29 c-8 36 -48 81 -72 81 -10
0 -29 9 -43 20 l-25 20 33 -11 c41 -14 62 -6 62 24 0 14 6 24 15 24 9 0 15
-10 15 -25z m209 -4 c-17 -32 -17 -131 0 -152 11 -13 11 -16 -1 -16 -7 0 -30
-9 -51 -19 -20 -10 -37 -18 -37 -17 0 1 9 19 20 41 25 48 25 73 3 98 -17 18
-17 19 0 28 9 6 29 21 45 34 34 30 36 30 21 3z m8982 -62 c2 -2 15 -10 29 -17
l25 -14 -21 -42 c-21 -40 -22 -41 -28 -19 -8 33 -54 86 -74 86 -10 0 -28 10
-42 21 l-25 20 36 -15 c40 -15 59 -7 59 25 0 33 25 27 31 -8 3 -18 8 -35 10
-37z m191 8 c-15 -51 -15 -60 0 -100 15 -42 15 -44 -4 -44 -10 0 -32 -7 -48
-15 l-29 -15 19 42 c25 54 25 73 1 97 -19 19 -19 20 -2 26 10 3 30 19 46 35
16 17 30 30 31 30 1 0 -6 -25 -14 -56z m-10537 -4 c-3 -5 -12 -10 -18 -10 -7
0 -6 4 3 10 19 12 23 12 15 0z m9185 -4 c0 -2 -8 -10 -17 -17 -16 -13 -17 -12
-4 4 13 16 21 21 21 13z m-4820 -16 c-19 -13 -30 -13 -30 0 0 6 10 10 23 10
18 0 19 -2 7 -10z m-2431 -48 c-19 -20 -42 -48 -51 -62 l-17 -25 -2 28 c-1 15
-2 32 -3 37 -1 8 80 54 103 59 2 1 -12 -16 -30 -37z m9179 -29 c-20 -21 -44
-52 -55 -69 l-18 -32 0 45 c1 43 3 45 51 68 27 13 51 24 54 24 2 1 -12 -16
-32 -36z m-1523 7 c10 -11 16 -20 13 -20 -3 0 -13 9 -23 20 -10 11 -16 20 -13
20 3 0 13 -9 23 -20z m-8519 -38 c-2 -1 -18 4 -37 12 l-34 15 25 9 c21 8 27 6
37 -12 6 -11 10 -22 9 -24z m-117 17 c-7 -4 -21 -3 -31 2 -25 14 -23 16 13 11
21 -3 27 -7 18 -13z m9186 -19 c-16 -6 -55 3 -55 13 0 2 17 1 38 -1 29 -4 33
-6 17 -12z m103 -6 c12 -25 12 -25 -10 -10 -12 9 -32 16 -43 17 -20 0 -20 0 0
9 32 14 41 11 53 -16z m-10465 -81 c-4 -11 -11 -9 -32 9 -14 12 -30 26 -35 30
-6 5 9 1 31 -8 28 -11 40 -21 36 -31z m-693 32 c0 -2 -7 -8 -15 -15 -12 -10
-15 -10 -15 2 0 8 7 15 15 15 8 0 15 -1 15 -2z m9874 -42 c10 -24 -20 -14 -50
18 l-29 31 37 -18 c20 -9 39 -23 42 -31z m-8979 -3 c-3 -5 -11 -10 -16 -10 -6
0 -7 5 -4 10 3 6 11 10 16 10 6 0 7 -4 4 -10z m7558 -3 c3 -8 1 -20 -4 -28 -6
-10 -9 -7 -9 14 0 29 5 35 13 14z m-6506 -3 c-3 -3 -12 -4 -19 -1 -8 3 -5 6 6
6 11 1 17 -2 13 -5z"/>
<path d="M2748 5693 c6 -2 18 -2 25 0 6 3 1 5 -13 5 -14 0 -19 -2 -12 -5z"/>
<path d="M1548 5473 c6 -2 18 -2 25 0 6 3 1 5 -13 5 -14 0 -19 -2 -12 -5z"/>
<path d="M349 964 c-20 -22 -24 -35 -24 -92 l0 -67 -29 33 c-57 64 -123 81
-152 37 -23 -36 -11 -72 44 -125 l47 -45 -62 3 c-35 2 -63 7 -63 12 0 20 -60
70 -84 70 l-26 0 0 -395 0 -395 131 0 130 0 -20 29 c-11 15 -32 36 -47 45 -38
25 -26 27 36 6 30 -11 67 -19 83 -20 15 0 44 -9 64 -20 21 -11 53 -20 71 -20
35 0 147 35 172 53 8 6 6 0 -5 -13 -55 -66 -69 -60 154 -60 l202 0 -12 23 -12
22 25 -23 24 -22 660 2 659 3 30 52 c25 43 35 52 58 53 39 0 39 -43 0 -59 -16
-6 -39 -20 -53 -31 l-25 -20 149 0 c121 0 147 2 143 14 -3 7 7 23 24 35 l28
21 -20 -35 -21 -35 247 0 c201 0 251 3 275 15 17 9 30 19 30 23 0 4 31 35 69
69 l68 62 -19 -67 c-30 -108 -36 -102 101 -102 105 0 120 2 124 18 4 16 5 16
6 -1 1 -16 101 -17 1973 -17 1556 0 1974 3 1986 13 13 9 14 9 8 -1 -6 -9 241
-12 1221 -12 1071 0 1231 2 1250 15 19 13 22 13 27 0 5 -13 55 -15 356 -15
345 0 350 0 350 20 0 11 -19 41 -41 65 -39 42 -40 45 -18 44 13 0 18 -3 11 -6
-10 -4 -9 -9 4 -24 22 -24 41 -25 23 -2 -12 15 -11 15 8 -1 12 -10 50 -29 85
-42 43 -16 55 -23 38 -24 -14 0 -38 -7 -55 -15 -26 -11 114 -13 963 -14 l993
-1 -12 23 -12 22 25 -22 c14 -14 37 -23 56 -23 l31 0 1 195 0 195 -42 -21 -42
-21 42 47 42 48 0 174 c0 156 -2 174 -16 171 -34 -6 -41 -36 -18 -78 l22 -39
-29 6 c-30 6 -79 -18 -79 -38 0 -6 -12 -26 -26 -44 -14 -19 -36 -60 -49 -91
l-23 -56 -6 33 c-22 112 -30 132 -66 170 -28 29 -45 39 -68 39 -37 0 -68 -27
-78 -66 -11 -44 3 -130 30 -185 l26 -51 -37 32 c-58 51 -136 83 -189 77 -44
-5 -44 -4 -44 27 0 35 -28 69 -68 81 -12 3 -47 -1 -77 -10 -43 -12 -70 -30
-125 -81 l-70 -66 21 58 c40 112 25 244 -30 274 -93 49 -180 -62 -181 -229
l-1 -66 -26 50 c-56 108 -120 165 -187 165 -52 0 -71 -13 -97 -66 l-22 -47
-14 27 c-21 40 -58 33 -58 -11 0 -31 -2 -33 -33 -33 -41 0 -52 -23 -24 -53
l21 -23 -20 -12 c-29 -18 -22 -56 11 -60 41 -6 43 -18 2 -14 -31 3 -42 -2 -70
-31 -20 -21 -41 -57 -51 -93 l-18 -58 -8 34 c-18 85 -73 150 -126 150 -62 0
-78 -89 -31 -182 l27 -54 -87 48 c-77 43 -93 48 -150 48 l-63 1 27 20 c56 42
86 127 56 157 -7 7 -27 12 -46 12 -28 0 -44 -9 -83 -49 l-49 -48 0 58 c0 68
-13 102 -46 119 -19 11 -27 10 -49 -4 -35 -23 -48 -60 -43 -124 l5 -52 -31 33
c-17 19 -46 42 -63 51 -26 13 -33 23 -33 47 0 49 -57 58 -128 20 l-20 -11 21
50 c17 41 19 53 9 75 -10 22 -18 26 -45 23 -27 -3 -36 -10 -58 -55 l-27 -52
-6 30 c-6 30 -55 89 -75 89 -38 0 -53 -72 -26 -123 10 -20 11 -27 2 -23 -57
23 -89 29 -112 18 -48 -22 -25 -76 50 -115 26 -14 27 -16 8 -17 -34 0 -83 -47
-83 -80 0 -20 -6 -31 -21 -35 -29 -9 -58 -80 -59 -140 l0 -50 -29 46 c-41 66
-77 91 -123 88 -50 -4 -55 5 -18 31 29 21 31 25 25 66 -5 39 -3 44 14 44 10 0
29 9 42 19 19 16 22 23 13 38 -6 10 -20 22 -32 28 -26 12 -34 41 -16 56 40 33
-11 105 -65 89 -28 -8 -28 -7 -18 21 16 42 -2 57 -49 40 -31 -11 -38 -11 -54
4 -16 15 -19 15 -34 -1 -9 -9 -14 -24 -11 -34 5 -15 -1 -17 -32 -16 l-38 1 -3
-48 c-3 -43 -6 -50 -32 -59 -18 -6 -39 -26 -55 -54 -26 -45 -38 -53 -51 -33
-3 6 -26 20 -50 31 -44 19 -53 31 -34 43 16 10 12 47 -8 80 l-19 30 39 -3 c42
-4 68 10 68 39 0 24 -37 49 -73 49 l-28 0 35 34 c38 35 44 54 24 74 -19 19
-54 14 -85 -12 l-29 -24 4 34 c7 54 -5 84 -32 84 -30 0 -45 -19 -53 -63 l-5
-35 -31 34 c-32 38 -62 42 -81 11 -9 -14 -6 -26 9 -55 l21 -37 -43 0 c-40 0
-44 3 -54 33 -19 56 -74 70 -108 26 -16 -20 -21 -41 -21 -88 l0 -61 -19 31
c-42 69 -111 94 -150 55 -25 -25 -43 -90 -35 -128 8 -42 -8 -48 -34 -13 -37
50 -93 49 -149 -3 l-23 -20 0 25 c0 39 -42 71 -94 71 -58 0 -118 -32 -189
-101 l-58 -57 15 42 c57 163 26 303 -69 303 -75 0 -125 -80 -133 -213 l-5 -88
-27 50 c-56 102 -125 161 -187 161 -49 0 -70 -15 -95 -67 -20 -43 -22 -45 -31
-25 -11 24 -41 37 -58 26 -6 -4 -9 -20 -6 -38 5 -31 4 -32 -29 -28 -46 6 -58
-22 -22 -53 l26 -23 -25 -11 c-33 -15 -29 -55 7 -59 14 -2 28 -7 32 -11 5 -4
-8 -5 -28 -3 -29 4 -41 -1 -66 -24 -35 -33 -67 -97 -68 -134 -1 -17 -9 -3 -25
40 -40 108 -121 156 -161 95 -24 -37 -15 -123 19 -173 l26 -39 -62 31 c-34 17
-74 40 -89 50 -21 14 -42 17 -93 14 l-66 -3 31 25 c43 35 70 80 70 116 0 39
-16 54 -59 54 -29 0 -43 -9 -85 -52 l-51 -53 0 73 c0 68 -2 76 -28 98 -35 30
-39 30 -74 0 -26 -22 -28 -30 -28 -98 l0 -73 -39 43 c-21 23 -49 45 -62 48
-19 5 -24 13 -24 39 0 21 -6 35 -16 39 -28 11 -74 6 -105 -10 -30 -15 -30 -15
-19 7 46 86 23 149 -45 122 -10 -3 -27 -28 -40 -55 -22 -47 -23 -48 -28 -20
-9 44 -44 82 -77 82 -42 0 -55 -62 -25 -119 l14 -28 -37 18 c-59 31 -112 19
-112 -24 0 -32 18 -53 65 -76 30 -15 35 -20 18 -21 -34 0 -83 -47 -83 -80 0
-20 -6 -31 -20 -35 -32 -10 -60 -76 -60 -142 l0 -58 -31 53 c-34 60 -80 93
-124 91 -50 -3 -118 20 -111 37 3 9 6 25 6 36 0 17 4 15 26 -12 19 -22 34 -30
52 -28 40 5 49 29 25 75 l-20 39 31 -4 c43 -5 86 29 70 55 -6 10 -29 25 -51
33 l-40 15 29 24 c63 52 6 110 -61 62 l-29 -21 5 40 c4 30 1 45 -12 60 -23 25
-30 25 -55 0 -13 -13 -20 -33 -20 -56 l0 -37 -19 24 c-13 17 -17 34 -14 53 6
28 5 28 -34 25 l-40 -4 5 37 c4 34 2 38 -16 38 -12 0 -29 -12 -39 -26 l-16
-26 -14 27 c-21 39 -58 31 -58 -13 0 -28 -3 -32 -19 -28 -24 6 -56 -10 -56
-29 0 -8 9 -20 20 -27 26 -16 25 -28 -1 -28 -11 0 -34 -14 -51 -31 l-31 -31
-42 21 c-23 12 -56 21 -74 21 -41 0 -40 17 4 81 23 31 34 57 30 68 -6 20 -45
41 -77 41 -18 0 -17 3 12 30 66 61 11 124 -58 65 l-30 -25 5 38 c6 46 -10 82
-37 82 -25 0 -50 -37 -50 -73 l0 -28 -34 35 c-36 39 -57 44 -76 21 -12 -14
-11 -30 6 -84 5 -17 4 -22 -5 -17 -14 9 -80 -11 -82 -25 -1 -5 -2 -15 -3 -21
-1 -9 -14 -12 -39 -10 -48 5 -67 -11 -68 -57 l0 -36 -20 51 c-47 123 -145 152
-186 56 -13 -30 -14 -48 -6 -97 15 -85 4 -94 -71 -59 -43 20 -68 25 -97 21
-34 -4 -39 -2 -39 14 0 28 -26 75 -45 83 -34 13 -100 5 -144 -16 -24 -12 -70
-47 -100 -77 l-56 -56 22 65 c26 75 30 165 9 214 -36 87 -134 87 -183 -1 -26
-47 -46 -162 -38 -218 6 -39 5 -38 -24 23 -39 81 -116 158 -166 168 -57 10
-86 -5 -116 -59 l-26 -48 -17 25 c-9 14 -23 26 -31 26 -20 0 -34 -30 -25 -54
7 -19 4 -21 -29 -21 -29 0 -37 -4 -39 -22 -2 -13 4 -27 16 -34 18 -11 18 -12
-5 -35 -27 -27 -21 -54 12 -54 13 0 26 -4 29 -8 3 -5 -8 -7 -23 -4 -52 7 -90
-35 -140 -158 l-10 -25 -1 25 c-2 66 -75 160 -124 160 -63 0 -81 -97 -35 -185
l26 -50 -56 28 c-30 15 -64 35 -74 45 -15 13 -37 17 -96 17 l-76 0 38 34 c65
58 83 113 49 144 -38 35 -102 11 -154 -58 l-26 -36 5 58 c5 65 -18 125 -50
131 -35 7 -64 -8 -77 -38 -13 -31 -15 -122 -4 -143 4 -7 -10 7 -30 30 -20 23
-52 48 -71 54 -29 11 -34 16 -29 36 4 13 1 30 -6 38 -16 19 -73 19 -110 0 -33
-17 -36 -12 -15 25 18 31 19 82 3 98 -32 32 -80 3 -103 -64 l-12 -37 -12 35
c-23 70 -87 103 -111 59 -15 -28 -12 -52 9 -94 18 -36 18 -36 -2 -26 -59 32
-117 29 -131 -7 -10 -25 20 -63 65 -83 l40 -18 -28 -6 c-40 -8 -86 -55 -80
-83 3 -16 -3 -25 -19 -33 -32 -14 -55 -62 -61 -129 l-6 -55 -18 35 c-10 19
-34 49 -54 67 -29 25 -45 32 -78 31 -39 -1 -117 9 -117 15 0 1 5 16 11 32 l10
31 25 -25 c35 -35 78 -29 82 11 2 17 -4 39 -16 55 l-19 27 32 -4 c40 -5 75 12
75 37 0 23 -31 51 -57 51 -32 0 -32 9 -1 40 39 40 36 74 -8 78 -22 2 -40 -5
-62 -23 l-31 -26 10 35 c14 51 -3 88 -38 84 -22 -2 -31 -11 -43 -44 l-15 -42
-26 29 c-53 58 -107 20 -71 -50 l20 -37 -29 4 c-30 4 -79 -20 -79 -40 0 -6
-12 -27 -27 -46 -15 -20 -37 -60 -49 -90 l-22 -54 -7 43 c-13 85 -35 137 -74
172 -49 44 -100 61 -159 53 l-46 -6 37 34 c70 64 82 147 23 162 -33 8 -103
-33 -131 -75 l-20 -31 -6 76 c-4 64 -9 80 -28 95 -31 26 -53 24 -82 -7z m4015
-289 c3 -8 1 -15 -4 -15 -6 0 -10 7 -10 15 0 8 2 15 4 15 2 0 6 -7 10 -15z
m-3779 -105 c3 -6 -1 -7 -9 -4 -18 7 -21 14 -7 14 6 0 13 -4 16 -10z m1352 4
c-3 -3 -12 -4 -19 -1 -8 3 -5 6 6 6 11 1 17 -2 13 -5z m1303 -40 c0 -1 -13 3
-28 8 -16 6 -29 17 -29 24 0 8 10 5 29 -9 15 -11 28 -22 28 -23z m-3098 2 c7
4 -6 -13 -27 -39 -22 -26 -40 -47 -42 -47 -1 0 7 21 17 46 11 25 20 53 21 62
0 12 3 10 10 -6 5 -15 13 -20 21 -16z m945 -60 c-3 -8 -2 -27 2 -43 8 -27 5
-29 -51 -55 l-59 -27 42 47 c23 26 46 57 52 70 11 24 23 31 14 8z m567 -33
c-18 -35 -18 -82 0 -102 12 -14 8 -21 -34 -58 l-47 -42 13 37 c15 44 18 121 4
142 -7 12 -1 19 28 32 51 23 53 22 36 -9z m246 -1 c0 -13 2 -14 9 -3 5 8 11 9
15 3 3 -5 -1 -13 -10 -16 -20 -8 -19 -8 -29 23 -5 16 -4 21 4 17 6 -4 11 -15
11 -24z m4257 22 c-3 -3 -12 -4 -19 -1 -8 3 -5 6 6 6 11 1 17 -2 13 -5z m1267
-13 c17 -19 17 -19 -3 -14 -12 3 -21 12 -21 19 0 18 4 18 24 -5z m667 -4 c-10
-9 -11 -8 -5 6 3 10 9 15 12 12 3 -3 0 -11 -7 -18z m-6044 -13 c-1 -1 -15 0
-30 3 -19 4 -25 8 -16 13 10 7 53 -9 46 -16z m-1373 -30 c3 -8 2 -12 -4 -9 -6
3 -10 10 -10 16 0 14 7 11 14 -7z m9496 6 c0 -5 -8 -10 -17 -10 -15 0 -16 2
-3 10 19 12 20 12 20 0z m1980 -65 c18 -19 20 -27 10 -45 -14 -27 -43 -19 -86
23 l-31 30 36 33 36 33 7 -26 c4 -14 17 -36 28 -48z m-10357 30 c9 -20 27 -39
39 -44 13 -5 37 -15 55 -21 21 -8 30 -17 26 -26 -5 -12 -9 -11 -27 5 -12 12
-27 21 -34 21 -17 0 -32 -34 -25 -58 4 -17 1 -20 -16 -15 -16 4 -19 11 -15 33
5 21 0 32 -21 49 -15 11 -34 21 -41 21 -9 0 -6 10 9 35 12 19 25 34 28 35 3 0
13 -16 22 -35z m9677 -11 c0 -1 -18 5 -40 13 -26 10 -36 19 -29 24 10 6 69
-26 69 -37z m-5601 -31 c-24 -47 -24 -78 0 -102 18 -18 18 -19 -6 -32 -14 -7
-36 -26 -49 -42 -27 -32 -29 -31 -14 9 14 37 15 127 1 153 -10 19 -9 21 11 21
13 1 34 7 48 15 14 8 26 14 26 15 1 0 -7 -17 -17 -37z m244 3 c-4 -5 1 -7 10
-3 10 3 17 2 17 -2 0 -22 -28 -16 -42 10 -16 27 -16 28 2 17 10 -7 16 -16 13
-22z m147 -10 c0 -1 -14 0 -31 2 -21 3 -27 7 -18 13 11 6 49 -5 49 -15z
m-5940 -22 c0 -2 -26 -4 -57 -3 -34 0 -50 3 -40 7 17 7 97 4 97 -4z m5723 -79
c14 -9 29 -15 33 -14 5 2 21 -4 36 -11 22 -10 25 -16 17 -27 -10 -11 -14 -10
-26 7 -9 13 -23 20 -36 18 -18 -2 -22 -10 -22 -39 0 -30 -3 -35 -20 -31 -16 3
-20 11 -20 40 0 31 -5 39 -30 52 l-30 15 20 40 20 41 17 -37 c9 -21 27 -45 41
-54z m-733 73 c0 -10 -19 -9 -45 2 -16 7 -14 9 13 7 17 -1 32 -5 32 -9z m4569
-25 c-24 -47 -24 -78 0 -102 18 -18 18 -19 -6 -32 -14 -7 -37 -27 -51 -44 -17
-20 -23 -24 -18 -10 22 60 27 113 13 153 -14 41 -14 42 7 42 11 1 32 7 46 15
14 8 26 14 26 15 1 0 -7 -17 -17 -37z m-9333 -25 c-22 -15 -72 -7 -111 18 -22
15 -31 23 -20 19 32 -12 50 -11 48 2 -2 7 16 3 46 -10 29 -13 44 -25 37 -29z
m9578 30 c-4 -6 2 -8 15 -3 26 8 28 -1 2 -14 -15 -8 -20 -6 -29 14 -9 20 -9
23 3 18 8 -3 12 -10 9 -15z m146 -12 c0 -1 -14 0 -31 2 -21 3 -27 7 -18 13 11
6 49 -5 49 -15z m-7697 -52 l39 -7 -64 -21 c-38 -12 -64 -17 -67 -11 -1 6 -11
26 -21 47 -10 20 -16 39 -13 42 3 3 24 -5 47 -19 22 -13 58 -27 79 -31z
m-1278 5 c31 -32 35 -39 15 -29 -14 7 -53 14 -87 14 -49 1 -66 -3 -85 -20 -21
-19 -26 -20 -58 -9 l-35 12 40 8 c72 13 110 25 140 44 17 11 30 20 30 20 1 1
19 -18 40 -40z m8747 -46 c8 -7 23 -14 34 -16 10 -2 31 -10 46 -17 22 -10 25
-16 17 -27 -10 -11 -14 -10 -26 7 -9 13 -23 20 -36 18 -18 -2 -22 -10 -22 -39
0 -30 -3 -35 -21 -31 -16 3 -19 9 -16 33 5 33 -20 69 -48 69 -15 0 -15 4 4 43
l21 42 16 -35 c9 -19 23 -41 31 -47z m-8269 -1 c-2 -7 2 -12 8 -12 8 0 8 -5
-1 -15 -8 -10 -31 -15 -68 -15 l-56 0 44 29 c45 30 77 35 73 13z m4854 12 c-3
-3 -12 -4 -19 -1 -8 3 -5 6 6 6 11 1 17 -2 13 -5z m98 -57 c17 -8 46 -18 65
-22 l35 -8 -50 -14 c-27 -8 -54 -19 -59 -24 -16 -15 -26 -10 -26 14 0 12 -14
40 -32 62 -18 23 -22 32 -10 21 26 -23 29 -11 5 18 -11 13 -6 10 12 -5 17 -15
44 -33 60 -42z m-1223 -11 l27 -34 -36 10 c-48 13 -119 5 -143 -17 -14 -13
-25 -15 -46 -8 -26 9 -22 10 40 26 37 9 80 26 94 37 15 10 29 20 32 20 3 0 17
-15 32 -34z m486 -83 c-6 -8 -32 -12 -64 -12 l-54 2 53 31 c51 32 52 32 64 12
8 -15 8 -25 1 -33z m-4708 3 c0 -2 -7 -6 -15 -10 -8 -3 -15 -1 -15 4 0 6 7 10
15 10 8 0 15 -2 15 -4z"/>
</g>
</svg>
