<?xml version="1.0" standalone="no"?>
<!DOCTYPE svg PUBLIC "-//W3C//DTD SVG 20010904//EN"
 "http://www.w3.org/TR/2001/REC-SVG-20010904/DTD/svg10.dtd">
<svg version="1.0" xmlns="http://www.w3.org/2000/svg"
 width="1280.000000pt" height="600.000000pt" viewBox="0 0 1280.000000 600.000000"
 preserveAspectRatio="xMidYMid meet">
<metadata>
Created by potrace 1.15, written by Peter Selinger 2001-2017
</metadata>
<g transform="translate(0.000000,600.000000) scale(0.100000,-0.100000)"
fill="#000000" stroke="none">
<path d="M3290 5622 c-107 -59 -104 -249 7 -425 25 -40 24 -40 -43 21 -80 73
-174 123 -244 130 -59 5 -129 -24 -151 -64 l-13 -26 -9 33 c-12 46 -35 69 -67
69 -69 0 -87 -105 -31 -175 14 -18 13 -18 -9 1 -78 67 -180 66 -180 -3 0 -54
51 -93 122 -93 l33 0 -43 -21 c-50 -25 -82 -62 -82 -95 0 -27 36 -64 62 -64
28 0 73 26 96 55 l20 25 4 -45 c2 -33 0 -45 -11 -45 -7 0 -32 -6 -55 -12 -53
-16 -171 -131 -216 -210 -17 -32 -33 -58 -34 -58 -1 0 6 30 15 68 33 125 19
286 -30 339 -11 11 -18 24 -15 27 2 3 1 4 -2 1 -4 -2 -16 2 -28 10 -11 8 -42
15 -67 15 -75 0 -128 -55 -143 -145 -11 -65 29 -200 89 -296 l27 -44 -50 49
c-28 27 -49 53 -46 58 3 5 2 8 -3 7 -22 -4 -34 2 -27 14 4 6 4 9 0 5 -4 -3
-29 4 -54 16 -26 12 -58 28 -72 34 -16 7 -19 11 -9 11 9 1 28 10 43 22 33 26
36 84 6 122 -25 31 -116 67 -173 67 l-42 1 37 13 c48 17 115 71 133 107 49 93
-46 167 -141 108 -34 -21 -78 -71 -108 -124 -10 -16 -14 -21 -11 -10 14 45 17
143 6 178 -15 44 -63 87 -98 87 -14 0 -37 -13 -54 -29 -25 -25 -29 -37 -29
-85 0 -43 7 -69 34 -120 l34 -66 -46 40 c-54 45 -108 70 -152 70 -32 0 -70
-15 -82 -33 -3 -6 -17 -2 -32 11 -84 66 -193 15 -215 -101 -13 -74 4 -152 58
-259 l48 -98 -70 66 c-115 109 -235 153 -323 119 -54 -20 -84 -63 -84 -118 0
-121 145 -206 355 -207 l50 0 -89 -30 c-159 -54 -245 -132 -253 -228 -5 -57
10 -88 57 -120 27 -18 46 -23 83 -20 44 3 48 1 54 -22 3 -14 15 -42 25 -64
l20 -38 -40 32 c-69 55 -162 49 -162 -12 0 -17 -19 -18 -435 -18 l-435 0 0
-1030 0 -1030 453 0 454 0 31 -61 32 -61 -41 37 c-76 68 -159 91 -218 60 -32
-16 -41 -33 -41 -75 0 -62 100 -120 209 -120 l46 0 -56 -24 c-101 -41 -149
-90 -149 -150 0 -38 10 -55 41 -71 37 -20 57 -19 104 5 22 11 41 20 42 20 2 0
3 -13 3 -29 0 -65 83 -118 201 -128 l73 -6 -50 -17 c-111 -38 -172 -91 -181
-158 -5 -36 -2 -45 25 -72 50 -49 110 -40 185 29 l44 40 16 -35 c9 -19 17 -46
17 -60 0 -39 25 -88 56 -113 37 -29 89 -23 121 13 20 24 24 25 113 19 l92 -6
-73 -22 c-92 -27 -148 -55 -200 -102 -153 -138 -65 -330 123 -267 66 22 167
119 222 214 21 36 35 56 31 45 -37 -113 -46 -261 -19 -338 9 -28 31 -60 55
-82 34 -30 46 -35 88 -35 39 0 56 6 82 27 86 73 80 226 -16 400 l-35 64 50
-50 c97 -97 199 -151 286 -151 54 0 92 18 128 60 26 31 26 31 26 7 0 -30 32
-73 60 -80 11 -3 30 3 45 15 32 25 34 82 5 138 l-20 40 47 -30 c75 -48 154
-34 153 26 -1 42 -65 84 -132 84 l-33 1 47 24 c79 42 110 102 70 138 -10 10
-34 17 -52 17 -26 0 -42 -9 -74 -43 l-41 -42 0 52 c0 52 1 53 29 53 73 0 174
84 252 211 20 32 38 58 40 56 2 -2 -3 -25 -12 -52 -40 -134 -25 -279 37 -350
97 -110 249 -31 249 131 0 46 -39 184 -65 232 l-24 43 46 -41 c25 -22 50 -40
54 -40 5 0 7 -12 5 -27 -2 -16 -1 -20 1 -10 3 10 8 17 11 15 57 -25 111 -54
112 -60 0 -4 -9 -10 -21 -13 -43 -14 -51 -89 -14 -133 33 -39 93 -62 166 -63
61 -1 71 -13 20 -24 -44 -10 -119 -61 -141 -97 -26 -42 -25 -79 1 -112 39 -49
126 -32 187 39 18 19 39 49 48 66 8 17 17 29 19 27 2 -1 -2 -29 -7 -61 -19
-110 28 -207 99 -207 95 0 118 121 47 249 l-24 44 32 -27 c85 -69 184 -94 229
-57 23 18 24 18 59 -5 73 -50 154 -25 194 60 48 102 24 234 -71 376 -13 20
-10 18 15 -6 83 -85 166 -134 260 -155 59 -13 117 4 159 46 19 19 37 35 41 35
4 1 9 4 12 7 3 4 -1 3 -9 -2 -10 -6 -12 -1 -6 23 8 37 -20 106 -56 139 -50 45
-127 74 -217 83 -48 4 -103 5 -122 3 -55 -8 -31 5 57 31 134 40 205 86 249
162 22 38 26 54 22 99 -3 34 -1 52 5 48 6 -3 7 -1 3 6 -4 6 -12 9 -17 6 -5 -4
-9 -2 -9 3 0 20 -79 52 -129 52 -48 0 -51 2 -51 25 l0 25 246 -2 246 -3 19
-50 c10 -27 19 -52 19 -54 0 -2 -16 9 -35 23 -50 38 -97 56 -149 56 -37 0 -48
-5 -70 -31 -31 -36 -32 -54 -7 -95 29 -48 82 -75 164 -84 40 -4 62 -8 49 -9
-53 -3 -142 -62 -168 -113 -50 -96 48 -176 144 -118 l32 20 0 -25 c0 -59 80
-111 205 -133 l50 -9 -40 -11 c-22 -7 -55 -21 -73 -32 -38 -24 -39 -24 -45 -8
-2 7 -3 4 -1 -8 2 -12 -5 -29 -16 -39 -30 -27 -42 -81 -26 -120 26 -61 108
-70 176 -20 26 19 36 22 43 12 6 -8 7 -7 4 5 -3 9 0 22 8 28 18 15 40 -26 48
-89 4 -33 15 -53 41 -80 45 -45 92 -48 134 -8 20 19 38 27 63 26 39 0 123 -16
96 -18 -10 0 -61 -21 -112 -46 -145 -69 -211 -159 -185 -254 25 -94 145 -123
246 -60 45 27 135 127 174 191 17 29 29 45 26 35 -22 -70 -38 -188 -33 -245
15 -155 130 -245 232 -182 75 46 93 183 42 311 -15 36 -27 69 -27 73 0 4 -10
22 -22 39 -16 22 -1 13 52 -31 127 -107 227 -141 316 -107 29 11 52 28 65 48
l19 32 6 -32 c17 -86 110 -99 130 -18 6 26 -9 86 -32 122 -11 17 -4 15 37 -13
54 -36 103 -44 131 -21 58 46 -6 126 -102 127 l-45 1 47 24 c78 41 107 96 74
140 -10 13 -27 20 -54 20 -22 0 -39 -2 -37 -6 3 -3 -7 -17 -22 -30 -14 -13
-35 -37 -45 -54 -19 -28 -20 -28 -14 -5 3 14 6 44 6 67 0 41 0 41 43 48 78 13
149 69 227 180 24 33 40 52 37 43 -40 -116 -21 -313 35 -365 40 -36 85 -53
132 -51 24 2 43 4 41 6 -1 1 12 17 30 35 75 75 72 206 -9 360 l-35 68 52 -44
c75 -63 113 -87 164 -107 l45 -17 -31 -13 c-64 -26 -79 -87 -36 -138 28 -34
79 -57 148 -67 l48 -7 -48 -24 c-27 -12 -57 -32 -67 -43 -10 -11 -24 -18 -30
-14 -6 3 -8 3 -4 -2 4 -4 1 -17 -7 -29 -23 -32 -19 -83 10 -111 50 -51 148
-21 213 65 l34 44 -7 -47 c-11 -70 10 -142 50 -172 43 -33 80 -32 116 4 25 26
29 37 29 88 0 41 -8 74 -26 113 l-25 55 28 -26 c72 -68 182 -89 227 -43 15 14
19 13 47 -7 42 -30 108 -31 146 -3 82 60 94 181 32 334 l-35 86 71 -51 c104
-75 186 -109 245 -102 26 3 52 2 59 -4 8 -6 8 -5 1 3 -6 8 -3 15 12 22 13 6
33 27 46 46 33 48 27 116 -15 168 -47 58 -120 89 -248 105 l-110 13 66 23 c37
12 93 38 125 58 33 19 65 36 71 36 7 0 11 2 9 5 -3 2 8 22 24 43 36 51 46 105
27 152 -9 19 -13 38 -11 41 2 3 1 4 -3 1 -3 -3 -13 1 -22 9 -26 23 -87 38
-125 30 -32 -5 -36 -4 -36 14 0 11 -3 28 -7 38 -6 15 -2 16 38 10 53 -9 68 -9
137 0 36 4 61 3 77 -6 13 -7 36 -10 54 -6 17 3 45 9 61 12 26 5 30 3 30 -15 0
-18 -6 -21 -38 -21 -44 0 -77 -28 -91 -77 -11 -36 13 -84 51 -104 13 -6 32
-20 44 -31 11 -10 35 -20 52 -21 18 -1 32 -3 32 -4 0 -2 -17 -11 -37 -22 -48
-24 -77 -56 -93 -102 -23 -66 27 -123 100 -114 18 3 43 11 56 20 22 14 24 14
24 -2 0 -29 35 -78 72 -101 18 -11 58 -23 88 -27 108 -12 110 -14 48 -39 -92
-37 -121 -59 -146 -107 -25 -50 -23 -83 8 -117 10 -11 17 -21 15 -23 -9 -9 85
-9 108 0 15 6 46 28 70 50 l43 40 14 -37 c8 -20 13 -41 12 -45 -7 -24 26 -92
56 -119 30 -25 41 -29 71 -24 20 3 45 16 57 29 19 22 28 24 120 25 63 0 92 -3
79 -8 -11 -5 -30 -9 -42 -9 -33 -1 -126 -38 -168 -67 -20 -13 -42 -21 -48 -18
-7 4 -9 4 -5 -1 4 -4 -10 -27 -32 -51 -69 -75 -74 -156 -13 -216 32 -31 39
-33 102 -33 63 0 73 3 126 39 56 39 126 120 159 184 25 49 29 34 10 -39 -23
-88 -16 -228 14 -286 58 -112 191 -121 249 -18 46 82 22 238 -57 366 l-32 53
67 -62 c82 -75 135 -107 212 -127 86 -23 157 -2 193 58 18 29 20 30 20 9 0
-36 28 -81 54 -88 59 -14 98 52 73 125 -8 22 -13 41 -11 41 2 0 18 -9 36 -20
33 -20 93 -26 114 -12 27 18 35 51 20 81 -16 29 -76 61 -119 61 -19 0 -17 3
11 17 42 21 82 68 82 98 0 29 -36 65 -64 65 -25 0 -74 -31 -97 -61 -16 -22
-17 -22 -20 24 -3 37 -1 47 11 47 73 0 183 88 263 210 28 41 47 66 43 55 -21
-56 -38 -185 -33 -243 7 -67 33 -138 60 -161 9 -7 15 -17 12 -20 -2 -4 1 -8 8
-9 7 0 30 -6 53 -12 53 -15 100 4 140 55 55 72 41 206 -36 353 l-39 75 49 -48
c27 -26 48 -53 47 -59 -1 -6 6 -10 17 -8 12 2 16 -1 10 -10 -4 -7 -3 -10 1 -5
5 4 18 1 29 -6 12 -8 43 -22 70 -32 43 -17 46 -20 26 -27 -12 -4 -27 -5 -33
-1 -7 3 -9 2 -4 -2 4 -5 -1 -17 -10 -27 -39 -43 -14 -111 52 -146 38 -20 132
-42 153 -36 10 2 2 -3 -16 -11 -18 -9 -38 -12 -44 -9 -6 4 -8 3 -4 -4 3 -5 -9
-20 -28 -32 -73 -44 -98 -129 -51 -175 53 -54 146 -16 215 87 30 45 41 55 36
35 -32 -134 1 -238 80 -253 26 -5 38 0 65 24 31 28 34 35 33 89 0 45 -8 72
-33 123 l-33 64 36 -32 c81 -71 160 -94 219 -63 38 19 39 19 70 0 39 -23 99
-25 137 -2 15 9 39 35 51 57 45 79 22 232 -53 352 -14 22 -28 46 -33 54 -5 8
24 -15 63 -52 124 -117 253 -163 342 -123 56 25 84 73 77 131 -13 116 -154
193 -358 195 l-64 0 75 23 c144 43 225 98 266 181 20 42 25 63 20 89 -14 72
-80 122 -151 114 -41 -5 -42 -5 -53 36 -6 22 -9 43 -6 45 2 3 20 -3 39 -12 44
-21 98 -22 115 -2 11 13 72 15 436 15 l424 0 0 1030 0 1030 -435 0 -434 0 -25
25 c-30 30 -55 32 -89 5 -14 -11 -27 -20 -30 -20 -3 0 -11 17 -17 38 -7 20
-24 57 -38 82 l-25 45 42 -38 c89 -80 180 -99 232 -48 36 37 37 70 2 112 -34
40 -71 56 -152 65 l-64 7 47 18 c124 47 182 144 121 204 -31 31 -85 33 -131 4
l-34 -21 0 30 c0 68 -81 121 -200 131 l-75 6 45 14 c108 32 178 92 187 159 5
36 2 45 -25 72 -49 49 -127 34 -196 -39 l-30 -31 -11 28 c-7 15 -15 48 -19 75
-8 51 -44 103 -83 118 -28 11 -86 -10 -100 -36 -9 -15 -21 -16 -99 -9 l-89 7
50 13 c137 36 262 129 285 214 22 81 -30 158 -113 167 -92 11 -218 -79 -289
-204 -17 -30 -32 -52 -34 -50 -3 2 2 30 11 63 20 76 19 198 -1 257 -23 67 -81
117 -137 117 -118 0 -176 -125 -131 -281 9 -30 34 -87 55 -128 l40 -74 -69 65
c-86 81 -164 121 -247 126 -73 5 -116 -13 -144 -59 l-19 -30 -6 35 c-7 35 -46
76 -72 76 -8 0 -23 -9 -34 -20 -26 -26 -26 -81 0 -138 l20 -44 -30 25 c-65 55
-152 56 -166 2 -12 -50 30 -86 111 -95 l50 -5 -47 -23 c-51 -25 -88 -67 -88
-100 0 -11 12 -30 27 -42 35 -27 66 -20 114 27 l37 35 3 -46 c4 -45 4 -46 -26
-46 -71 0 -173 -88 -250 -216 -39 -65 -40 -64 -20 21 19 79 19 200 0 257 -47
138 -209 159 -265 35 -24 -51 -25 -126 -4 -196 8 -29 13 -60 10 -68 -3 -8 -2
-12 2 -9 4 2 19 -18 34 -45 l26 -50 -41 36 c-80 68 -91 75 -138 98 -53 24 -59
33 -28 42 11 4 24 18 30 32 34 91 -53 163 -198 163 l-48 0 56 24 c96 39 149
93 149 151 -1 55 -49 91 -107 80 -42 -8 -105 -63 -140 -122 -13 -23 -26 -43
-28 -43 -2 0 1 17 6 38 14 60 10 124 -10 169 -22 46 -45 63 -90 63 -83 0 -107
-117 -47 -231 l26 -51 -48 36 c-82 60 -157 75 -207 42 -24 -16 -27 -16 -55 4
-73 52 -147 28 -193 -61 -25 -48 -27 -62 -23 -122 3 -37 8 -73 13 -80 4 -6 9
-20 10 -30 3 -19 42 -96 70 -137 10 -15 1 -9 -23 14 -86 86 -175 134 -261 143
-67 7 -95 -1 -138 -38 -62 -55 -57 -134 13 -202 63 -61 120 -80 257 -87 l120
-5 -69 -17 c-82 -21 -172 -61 -203 -90 -12 -12 -27 -17 -34 -13 -7 5 -10 4 -6
-2 4 -5 -5 -25 -19 -44 -81 -111 -29 -230 104 -235 36 -1 56 -6 54 -13 -1 -6
4 -27 12 -46 l15 -35 -25 17 c-15 10 -23 22 -19 31 4 11 2 12 -8 4 -13 -11
-82 -10 -94 2 -18 17 -74 4 -108 -25 -20 -18 -37 -30 -39 -28 -10 10 -8 86 2
106 24 43 15 83 -27 124 -42 39 -83 52 -171 51 l-45 0 47 13 c94 25 157 84
165 152 3 27 -2 40 -26 63 -35 36 -80 39 -128 10 l-33 -20 0 27 c0 17 -13 38
-39 63 -37 36 -76 51 -166 65 -33 6 -36 8 -21 17 9 5 29 7 44 4 15 -3 21 -3
14 1 -9 3 0 13 25 28 l38 24 7 -22 c6 -18 7 -17 4 6 -2 15 1 30 6 34 20 12 49
92 42 118 -10 39 -50 65 -100 65 -36 0 -52 -7 -97 -44 l-53 -43 -11 26 c-6 14
-14 45 -18 69 -5 31 -18 55 -46 84 -35 37 -42 40 -76 35 -24 -4 -46 -16 -59
-33 -20 -24 -26 -25 -65 -19 -24 4 -60 7 -79 7 -30 -1 -25 3 37 27 101 40 155
74 202 127 63 72 68 155 11 209 -41 40 -120 46 -184 16 -57 -28 -139 -111
-189 -193 -22 -35 -37 -54 -34 -43 3 11 11 40 18 65 17 62 17 207 0 253 -18
54 -66 105 -108 116 -113 31 -201 -82 -174 -225 11 -57 55 -180 74 -203 14
-19 10 -16 -73 49 -30 24 -79 54 -109 68 -97 45 -215 29 -243 -33 -14 -32 -28
-32 -28 -1 0 33 -37 76 -65 76 -26 0 -65 -42 -65 -71 0 -10 9 -42 19 -70 18
-45 18 -49 3 -36 -78 68 -179 57 -170 -19 4 -37 45 -65 109 -73 l54 -7 -37
-13 c-20 -7 -51 -28 -68 -48 -26 -29 -31 -42 -26 -66 15 -73 94 -61 156 25
l27 37 -4 -52 c-6 -72 -9 -77 -40 -77 -65 0 -180 -95 -240 -197 -14 -24 -26
-43 -27 -43 -2 0 3 23 10 52 25 97 11 251 -30 312 -20 31 -85 66 -122 66 -38
0 -96 -36 -118 -73 -43 -74 -29 -206 34 -324 l29 -53 -57 43 c-73 56 -118 82
-166 97 l-39 13 39 13 c72 25 85 79 33 139 -32 36 -103 65 -163 65 -29 0 -28
2 19 24 28 14 59 34 69 45 10 11 23 18 28 15 4 -3 8 -2 7 3 -1 4 3 21 9 36 14
34 15 67 2 87 -6 9 -5 17 3 22 7 4 4 7 -8 7 -11 0 -38 2 -60 6 -56 8 -119 -26
-160 -87 l-33 -47 5 62 c6 81 -12 134 -56 164 -45 30 -64 29 -103 -6 -31 -28
-33 -33 -32 -93 1 -44 8 -76 23 -106 l22 -43 -50 35 c-67 45 -137 56 -185 28
-33 -20 -34 -20 -62 -1 -43 28 -115 25 -153 -6 -43 -37 -65 -102 -58 -173 6
-64 39 -169 70 -222 21 -35 21 -35 -29 11 -27 25 -87 65 -134 88 -78 39 -90
42 -140 37 -82 -8 -89 -10 -84 -17 2 -4 -3 -10 -11 -13 -9 -3 -24 -24 -34 -46
-35 -78 3 -162 96 -213 52 -28 77 -33 203 -45 l75 -7 -58 -23 c-135 -52 -170
-77 -286 -211 -43 -50 -44 -51 -59 -30 -8 12 -12 32 -9 47 3 15 1 47 -5 72 -5
25 -9 67 -8 94 1 38 -4 54 -21 72 -26 28 -84 32 -128 9 -28 -14 -29 -14 -34
14 -7 31 -61 89 -93 97 -11 3 -54 11 -94 18 l-73 12 62 23 c74 27 135 78 151
126 9 28 8 41 -5 70 -10 19 -22 35 -27 35 -5 0 -7 3 -5 8 3 4 -15 8 -39 10
-54 3 -104 -18 -143 -64 l-30 -33 -15 31 c-9 17 -16 43 -16 57 0 14 -9 45 -20
69 -33 72 -110 90 -161 36 -21 -22 -29 -24 -118 -23 l-96 1 72 18 c227 59 358
225 262 335 -69 79 -175 66 -282 -34 -34 -33 -80 -89 -101 -125 -21 -36 -39
-66 -41 -66 -1 0 7 33 17 73 27 103 22 235 -12 296 -46 82 -121 111 -190 73z
m-127 -613 l62 0 -55 -18 c-124 -40 -213 -102 -247 -170 l-20 -39 -15 33 c-12
27 -12 36 -1 51 17 23 17 76 -1 119 l-15 35 37 -25 c55 -38 142 -29 142 15 0
17 3 18 26 10 14 -6 53 -10 87 -11z m3468 -6 c18 -21 71 -43 104 -43 14 0 36
10 48 23 21 20 29 22 107 17 l85 -5 -50 -13 c-57 -15 -147 -63 -187 -100 -16
-15 -31 -21 -40 -16 -7 4 -10 4 -6 -1 4 -4 -4 -24 -17 -44 -14 -19 -25 -42
-25 -51 -1 -8 -7 3 -15 24 -12 34 -12 43 2 69 13 25 13 37 3 71 -6 23 -18 51
-26 64 -17 25 -3 30 17 5z m-5087 -38 l58 -8 -60 -29 c-33 -15 -73 -43 -88
-61 l-27 -32 6 34 c4 18 7 53 7 77 0 41 1 43 23 35 13 -5 49 -12 81 -16z
m8934 -25 c13 0 34 11 48 25 23 24 31 25 127 24 l102 0 -80 -23 c-134 -38
-225 -98 -264 -173 l-17 -34 -16 35 c-15 30 -15 36 -2 46 17 15 17 63 0 112
l-13 37 46 -24 c25 -14 56 -25 69 -25z m-5188 11 l55 -7 -46 -21 c-25 -11 -62
-35 -82 -53 l-37 -32 0 71 0 71 27 -11 c15 -6 53 -14 83 -18z m3723 -11 c55 0
63 -15 19 -33 -21 -8 -53 -28 -70 -42 l-32 -27 0 61 0 61 26 -10 c14 -6 40
-10 57 -10z m1815 -137 c-14 -42 -20 -86 -22 -158 -1 -92 1 -104 26 -146 15
-26 42 -59 60 -74 27 -23 39 -26 87 -24 39 2 64 -2 81 -13 41 -26 66 -30 103
-14 47 19 113 80 144 133 13 23 26 43 28 43 8 0 -21 -89 -37 -112 -34 -49 -21
-89 50 -153 44 -39 62 -44 137 -31 l40 7 -48 -20 c-27 -11 -63 -31 -82 -45
l-33 -25 -6 24 c-20 81 -135 86 -207 9 -41 -44 -56 -33 -61 46 -3 60 -8 73
-32 99 -53 55 -115 47 -148 -19 -24 -47 -22 -94 6 -162 l24 -58 -30 21 c-23
17 -27 24 -16 31 10 7 8 8 -5 4 -10 -3 -34 3 -55 14 -47 25 -98 25 -140 0 -18
-11 -47 -20 -65 -19 -30 0 -28 2 23 22 108 42 178 143 144 208 -34 67 -120 67
-196 0 -20 -17 -39 -27 -43 -23 -5 4 -6 3 -3 -3 3 -5 -5 -26 -19 -45 -17 -24
-23 -28 -18 -13 10 35 8 115 -4 159 -14 53 -71 104 -116 104 -30 0 -85 -65
-85 -100 0 -36 6 -35 -100 -11 -25 6 -67 11 -95 12 -44 1 -46 2 -20 9 59 15
133 47 179 79 50 35 106 103 106 130 0 9 10 -2 23 -23 35 -61 68 -81 137 -80
70 1 131 36 197 112 38 45 55 71 92 140 21 39 21 24 -1 -35z m-8897 -2 l24
-10 -23 0 c-13 -1 -32 -6 -43 -11 -16 -9 -21 -7 -29 15 -19 49 -13 59 19 36
16 -12 39 -25 52 -30z m1400 13 c-20 -71 -23 -191 -7 -248 30 -103 112 -163
189 -139 29 9 37 7 61 -13 15 -14 40 -24 57 -24 61 0 144 62 181 135 12 23 23
34 26 27 2 -8 -10 -40 -27 -73 -38 -73 -35 -95 24 -152 30 -30 44 -53 48 -79
8 -55 -11 -66 -72 -39 -61 26 -87 26 -127 2 -20 -12 -36 -16 -45 -10 -46 29
-114 -4 -125 -60 -7 -32 -58 -56 -111 -52 -19 1 -33 -2 -33 -8 0 -20 -15 -11
-32 20 -23 39 -103 75 -188 84 l-65 8 40 12 c123 37 206 121 189 191 -8 32
-59 74 -92 74 -57 0 -132 -53 -183 -130 -17 -25 -17 -24 -12 22 15 131 -30
228 -106 228 -26 0 -44 -7 -58 -22 -27 -30 -43 -62 -43 -87 0 -25 2 -24 -75
-6 -33 8 -77 15 -97 15 -39 0 -51 16 -20 26 52 18 149 68 182 94 21 17 50 53
63 80 l25 50 6 -33 c12 -64 91 -113 159 -100 57 11 123 51 171 104 25 28 46
56 46 61 0 6 7 7 16 4 8 -3 13 -2 9 3 -5 8 26 73 32 67 2 -1 -1 -16 -6 -32z
m3742 -26 c-10 -36 -13 -84 -10 -150 6 -112 29 -166 87 -206 30 -21 43 -23 91
-18 76 7 87 -6 43 -50 -19 -19 -34 -44 -34 -54 0 -17 7 -20 58 -21 l57 -1 -57
-16 c-36 -10 -60 -22 -63 -33 -3 -9 -19 -22 -35 -29 -16 -6 -36 -20 -46 -31
-9 -10 -25 -19 -35 -19 -10 0 -26 -11 -35 -25 -14 -21 -19 -23 -37 -14 -20 11
-20 12 6 26 15 7 27 18 27 23 0 13 -41 13 -74 0 -16 -6 -46 -5 -86 2 l-62 12
36 12 c99 35 164 111 152 177 -13 71 -81 95 -163 58 -23 -11 -44 -17 -47 -15
-3 2 -4 1 -1 -2 2 -4 -8 -21 -23 -38 -15 -17 -35 -43 -44 -56 -16 -24 -16 -24
-7 20 18 82 -3 184 -45 219 -8 7 -33 15 -55 18 -35 5 -44 2 -70 -24 -16 -17
-33 -46 -36 -67 -6 -32 -10 -36 -29 -30 -52 17 -95 24 -156 24 l-65 0 81 28
c115 41 185 92 233 172 17 29 21 31 21 13 0 -12 11 -34 24 -50 12 -15 21 -35
19 -43 -4 -12 -3 -12 5 -1 8 11 16 11 46 0 29 -11 45 -11 82 -1 82 22 150 79
218 185 21 31 39 57 41 57 1 0 -4 -24 -12 -52z m-1389 2 c9 0 16 -5 16 -11 0
-6 -7 -9 -15 -5 -8 3 -27 1 -42 -5 -30 -11 -43 0 -43 39 l0 24 34 -21 c18 -12
41 -21 50 -21z m3756 -19 c25 -10 25 -10 -5 -9 -16 1 -40 -2 -52 -6 -23 -7
-43 15 -43 49 0 14 5 13 38 -4 20 -11 48 -24 62 -30z m-8030 -38 c-11 -17 -11
-17 -6 0 3 10 6 24 7 30 0 9 2 9 5 0 3 -7 0 -20 -6 -30z m7495 -23 c-4 -12 -9
-19 -12 -17 -3 3 -2 15 2 27 4 12 9 19 12 17 3 -3 2 -15 -2 -27z m-5200 -40
l40 0 -60 -25 c-33 -14 -61 -25 -62 -25 -2 0 -3 14 -3 31 0 28 3 31 23 25 12
-3 40 -6 62 -6z m3763 -25 c3 -3 -1 -5 -9 -5 -8 0 -32 -9 -54 -20 -22 -11 -39
-20 -40 -20 0 0 -1 15 -2 34 l-3 33 51 -8 c29 -5 54 -11 57 -14z m-5686 -45
c28 0 40 -8 70 -44 20 -24 56 -52 80 -63 45 -21 166 -43 246 -44 l47 0 -55
-15 c-94 -24 -194 -80 -242 -133 -37 -41 -45 -46 -57 -34 -11 12 -10 16 3 26
27 20 44 83 35 130 -9 50 -48 88 -135 132 -50 25 -73 30 -168 36 -61 3 -102 7
-91 8 11 1 56 14 99 29 l80 27 27 -27 c19 -20 38 -28 61 -28z m9472 46 c5 -1
-25 -14 -67 -28 l-77 -25 0 32 0 33 68 -5 c37 -3 71 -6 76 -7z m-5786 -26 c22
-21 40 -30 64 -30 27 0 37 -6 51 -30 10 -16 31 -37 47 -47 30 -17 36 -28 23
-36 -5 -2 -2 -2 4 -1 7 2 32 -4 55 -12 23 -8 92 -18 152 -21 l110 -6 -65 -19
c-38 -10 -79 -15 -101 -12 -45 7 -76 -9 -91 -45 -18 -42 -84 -114 -97 -106 -8
5 -5 14 9 29 48 51 45 135 -6 188 -55 58 -187 107 -294 109 -48 1 -51 2 -24
10 17 4 53 19 80 33 28 14 51 25 52 25 1 1 15 -12 31 -29z m3728 -5 c4 -9 18
-22 33 -30 l26 -14 -30 -2 c-16 -1 -23 -3 -14 -6 9 -2 34 0 57 5 36 9 42 7 47
-9 11 -33 86 -88 149 -108 33 -12 94 -24 135 -27 l73 -7 -53 -17 c-75 -23
-133 -55 -180 -97 l-40 -36 6 64 c5 55 3 69 -17 104 -46 78 -161 124 -318 125
-92 1 -92 10 0 29 30 7 66 18 80 26 32 18 39 18 46 0z m-5172 -108 c4 -17 18
-49 32 -70 l25 -38 -25 17 c-15 9 -26 21 -26 28 0 6 -11 37 -24 69 -21 50 -22
56 -6 42 10 -9 21 -30 24 -48z m7486 -3 c0 -6 15 -42 34 -78 l33 -67 -33 32
c-19 18 -34 39 -34 46 0 8 -14 42 -31 76 l-31 62 31 -29 c17 -17 31 -35 31
-42z m-3750 12 c0 -6 12 -36 26 -65 23 -50 23 -53 4 -36 -11 10 -20 25 -20 34
0 9 -11 38 -24 64 -20 41 -21 46 -5 31 11 -9 19 -22 19 -28z m-188 -13 c-3
-16 -13 -39 -23 -52 -11 -13 -19 -33 -19 -43 0 -14 -5 -18 -16 -14 -9 3 -24 6
-35 6 -16 0 -13 6 15 31 19 17 45 46 56 65 26 41 29 42 22 7z m-3361 -56 c-10
-9 -11 -8 -5 6 3 10 9 15 12 12 3 -3 0 -11 -7 -18z m3759 6 c-1 -5 -7 -19 -15
-33 -10 -18 -14 -20 -15 -8 0 23 11 48 21 48 5 0 9 -3 9 -7z m-6335 -163 c35
-17 71 -30 80 -30 13 0 16 -5 11 -22 -17 -57 -16 -87 2 -145 24 -75 18 -78
-61 -33 -32 18 -68 30 -89 30 l-35 0 0 59 c-1 72 -32 168 -78 245 l-34 57 71
-66 c40 -37 98 -78 133 -95z m10069 128 c-23 -45 -27 -48 -18 -13 9 38 13 45
25 45 5 0 2 -15 -7 -32z m-2634 -121 c30 -20 76 -44 103 -53 42 -14 47 -19 41
-37 -9 -31 -8 -30 -45 -12 -23 12 -48 16 -86 13 -51 -4 -54 -3 -59 21 -6 24
-57 123 -93 181 -9 14 7 2 34 -26 28 -27 75 -67 105 -87z m-7806 63 c-8 -30
-17 -89 -21 -130 -5 -71 -8 -78 -48 -122 l-43 -47 2 53 c0 29 -5 65 -13 79
-13 25 -12 29 25 69 22 24 55 68 74 99 19 32 36 56 37 55 1 0 -5 -26 -13 -56z
m3745 -17 c-10 -38 -18 -96 -18 -131 -1 -62 -2 -65 -46 -109 l-45 -45 0 49
c-1 26 -7 59 -14 73 -13 23 -11 27 30 73 24 27 57 73 74 103 17 30 33 54 34
54 1 0 -6 -30 -15 -67z m365 -62 c32 -17 66 -31 76 -31 21 0 35 -16 21 -24
-23 -15 -21 -112 5 -179 9 -24 -15 -22 -67 7 -24 14 -60 27 -79 31 l-36 6 1
69 c0 38 -4 68 -9 67 -6 -1 -12 7 -14 17 -2 11 -19 53 -38 93 l-33 74 57 -50
c31 -27 83 -63 116 -80z m3382 59 c-9 -29 -19 -89 -22 -133 -7 -77 -9 -83 -46
-117 l-38 -37 0 34 c0 18 -7 50 -15 69 l-15 36 45 51 c25 29 57 75 72 104 15
28 29 50 31 48 2 -1 -4 -27 -12 -55z m-2343 -174 c23 -8 65 -18 92 -22 l50 -7
-30 -13 c-40 -18 -95 -7 -119 24 -16 20 -25 23 -55 19 -36 -6 -36 -6 -68 61
-18 37 -40 78 -50 92 -10 14 17 -12 60 -57 54 -57 91 -86 120 -97z m1224 62
c-12 -10 -28 -23 -34 -28 -10 -8 -13 -1 -13 34 0 24 -3 52 -7 62 -4 12 7 7 35
-16 l42 -35 -23 -17z m2548 -83 c73 -23 73 -25 10 -65 -16 -11 -37 -25 -46
-31 -9 -7 -27 -9 -41 -6 -20 5 -27 15 -32 48 -7 46 -67 182 -85 193 -6 4 -11
12 -11 17 0 5 31 -23 69 -62 60 -63 78 -75 136 -94z m-389 98 c-4 -9 -11 -50
-17 -92 -15 -103 -24 -114 -24 -28 1 52 6 81 20 105 21 34 31 42 21 15z
m-5195 -83 c10 0 14 -15 13 -58 -1 -31 -2 -60 -3 -65 0 -4 -15 0 -32 9 -18 9
-46 14 -65 12 -33 -4 -34 -3 -34 32 0 24 7 43 20 55 11 10 20 27 20 37 0 19 1
19 34 -1 18 -12 40 -21 47 -21z m2252 13 c-7 -2 -19 -2 -25 0 -7 3 -2 5 12 5
14 0 19 -2 13 -5z m1196 -27 c27 -19 54 -36 59 -38 5 -1 12 -20 16 -40 7 -37
6 -38 -21 -37 -51 1 -64 13 -87 82 -12 37 -22 67 -20 67 1 0 25 -15 53 -34z
m3551 -7 c-6 -18 -10 -51 -10 -71 l0 -38 -51 0 -51 0 29 24 c15 13 42 46 58
74 17 28 31 49 32 48 2 -1 -2 -18 -7 -37z m-3758 -46 l-4 -63 -50 0 c-29 0
-47 4 -43 10 3 5 20 7 38 5 18 -3 27 -3 21 0 -8 4 -3 24 14 60 14 30 26 54 27
52 1 -1 0 -30 -3 -64z m-3068 16 c6 -33 1 -49 -15 -49 -13 0 -31 50 -25 67 10
24 33 13 40 -18z m6556 -23 c0 -18 -64 -56 -93 -56 -16 0 -11 5 20 21 23 11
47 27 54 35 14 18 19 18 19 0z m-8270 -31 c13 -14 19 -25 14 -25 -8 1 -50 50
-41 50 2 0 14 -11 27 -25z m-1120 1 c0 -16 -18 -31 -27 -22 -8 8 5 36 17 36 5
0 10 -6 10 -14z m4865 -16 c3 -5 1 -10 -4 -10 -6 0 -11 5 -11 10 0 6 2 10 4
10 3 0 8 -4 11 -10z m-3078 -6 c-3 -3 -12 -4 -19 -1 -8 3 -5 6 6 6 11 1 17 -2
13 -5z m-2615 -2108 c-15 -24 -28 -43 -29 -42 -1 1 1 20 4 44 5 36 9 42 29 42
l23 0 -27 -44z m280 14 c21 -36 65 -41 93 -10 18 20 18 20 34 -11 18 -39 69
-63 105 -49 37 14 66 47 66 75 0 24 3 25 60 25 l60 0 -20 -32 c-25 -42 -25
-88 0 -121 42 -54 113 -42 193 32 48 45 57 49 57 26 0 -8 -4 -15 -8 -15 -5 0
-30 -14 -56 -31 -53 -35 -81 -82 -88 -149 -3 -25 -4 -40 -1 -33 2 7 13 2 28
-13 34 -34 68 -39 123 -18 26 10 51 17 57 15 5 -1 7 1 3 5 -13 13 13 34 43 34
30 0 31 -1 44 -81 7 -44 36 -84 76 -104 25 -14 33 -14 63 -1 37 16 66 59 66
101 0 29 -2 29 58 11 26 -8 74 -18 107 -21 l60 -7 -61 -22 c-86 -31 -144 -68
-190 -118 -21 -24 -42 -42 -45 -41 -4 1 -5 -8 -3 -20 5 -21 4 -21 -8 -3 -37
53 -54 70 -84 82 -76 32 -160 6 -238 -71 -29 -30 -47 -41 -55 -34 -8 6 -8 5
-1 -3 6 -7 3 -20 -9 -37 -10 -14 -28 -46 -40 -69 -27 -53 -39 -49 -16 4 22 51
31 206 16 261 -6 23 -27 62 -45 86 -32 42 -33 46 -18 63 16 18 16 18 -3 2 -13
-10 -27 -13 -40 -8 -27 11 -87 12 -103 1 -9 -5 -23 0 -39 15 -19 17 -37 24
-67 24 -64 -1 -128 -53 -203 -166 -22 -33 -4 35 25 93 22 46 24 54 12 82 -6
17 -32 49 -56 71 -47 43 -82 50 -142 29 -17 -6 -37 -9 -43 -7 -7 2 16 14 50
27 72 26 135 83 146 130 8 39 15 39 37 1z m1242 -9 c3 -21 21 -68 39 -105 l34
-67 -30 28 c-17 15 -42 41 -56 57 -28 32 -93 65 -128 66 -17 0 -22 5 -20 21 5
30 25 39 93 39 l61 0 7 -39z m382 24 c4 -9 -8 -33 -29 -58 -19 -23 -44 -58
-56 -77 -13 -19 -20 -26 -17 -15 3 11 8 38 11 60 17 114 13 105 51 105 22 0
37 -6 40 -15z m528 6 c17 -7 16 -9 -8 -24 -26 -17 -26 -17 -26 8 0 26 4 28 34
16z m1750 -15 c3 -13 0 -39 -8 -57 -16 -41 -8 -68 30 -98 31 -25 68 -27 108
-6 15 8 32 12 37 9 5 -3 8 0 7 7 -2 7 13 23 32 36 l35 24 6 -23 c4 -13 7 -38
8 -56 2 -55 27 -101 64 -117 19 -8 43 -12 53 -9 14 4 24 -2 33 -19 15 -27 50
-47 85 -47 41 0 121 48 156 95 19 25 35 45 36 45 1 0 -1 -29 -3 -64 -7 -83 2
-128 32 -164 13 -16 23 -31 21 -33 -3 -2 18 -5 45 -7 43 -3 53 1 79 26 16 16
32 45 35 66 6 32 10 36 29 30 51 -17 95 -24 156 -24 l65 -1 -65 -23 c-63 -22
-122 -49 -144 -67 -60 -47 -87 -76 -105 -112 -12 -23 -21 -34 -21 -24 0 37
-31 77 -75 97 -53 24 -57 24 -123 5 -63 -19 -147 -93 -204 -179 -21 -34 -37
-52 -34 -41 22 82 28 174 15 239 -14 78 -39 120 -89 154 -30 20 -44 23 -92 19
-47 -4 -60 -2 -74 14 -21 23 -92 26 -132 5 -28 -15 -87 -73 -116 -116 l-18
-25 7 35 c4 19 16 46 27 61 30 40 17 78 -47 138 -42 40 -61 51 -86 51 l-32 0
44 29 c24 16 47 27 53 24 5 -4 6 -1 2 6 -5 7 -1 20 7 29 9 9 19 31 23 47 10
45 11 45 74 45 53 0 58 -2 64 -24z m1131 -15 c4 -22 22 -72 40 -110 l34 -71
-28 21 c-16 12 -39 35 -51 51 -27 36 -86 64 -157 73 -29 4 -53 10 -53 13 1 16
118 60 162 61 l46 1 7 -39z m1445 2 c0 -21 7 -51 15 -66 14 -28 13 -30 -28
-78 -23 -27 -59 -77 -80 -111 -22 -35 -36 -52 -31 -38 25 86 34 132 34 189 0
61 2 67 38 103 20 21 40 38 45 38 4 0 7 -17 7 -37z m889 33 c-2 -2 -19 -11
-36 -20 -32 -16 -33 -16 -33 4 0 16 7 20 37 20 20 0 34 -2 32 -4z m2426 -6
c14 -5 38 -11 54 -12 28 -2 29 -4 34 -68 5 -78 34 -162 83 -244 l35 -60 -68
65 c-76 71 -136 110 -200 129 -24 7 -43 16 -43 20 0 4 14 24 30 45 35 44 38
73 9 109 l-20 26 30 0 c16 0 41 -4 56 -10z m499 -122 c6 -12 -4 -31 -32 -65
-23 -26 -57 -75 -77 -108 -20 -33 -34 -51 -31 -39 17 58 36 164 36 206 0 42 5
52 43 91 l42 44 6 -56 c3 -31 9 -64 13 -73z m-1488 82 c16 0 24 -10 33 -42 7
-24 28 -72 47 -108 l33 -65 -58 61 c-32 34 -70 69 -84 79 -37 24 -125 45 -160
38 -21 -4 -28 -3 -23 5 4 7 15 12 24 13 9 0 39 10 67 23 43 19 53 21 75 9 14
-7 34 -13 46 -13z m384 16 c0 -3 -4 -8 -10 -11 -5 -3 -10 -1 -10 4 0 6 5 11
10 11 6 0 10 -2 10 -4z m-5690 -43 c-11 -17 -11 -17 -6 0 3 10 6 24 7 30 0 9
2 9 5 0 3 -7 0 -20 -6 -30z m2579 -53 c5 0 23 -37 41 -82 18 -46 39 -94 48
-108 12 -20 7 -17 -29 13 -24 21 -58 47 -75 59 -25 18 -33 31 -37 65 -2 23
-14 60 -25 82 l-21 40 45 -34 c25 -19 49 -35 53 -35z m-708 11 c-15 -20 -36
-49 -45 -66 -10 -16 -15 -23 -13 -15 3 9 10 40 16 71 11 54 13 55 41 51 l30
-4 -29 -37z m2291 -19 c-4 -56 -7 -62 -23 -57 -11 4 -19 2 -19 -4 0 -6 9 -11
19 -11 13 0 23 -11 31 -35 6 -19 24 -45 40 -59 l29 -24 -25 -6 c-34 -9 -98
-69 -129 -122 -14 -24 -28 -44 -30 -44 -9 0 19 77 36 99 30 38 25 85 -16 129
-19 22 -32 42 -30 46 3 3 2 4 -1 1 -4 -2 -15 0 -26 6 -17 9 -13 13 34 37 32
16 65 43 83 68 16 23 30 41 31 40 1 -1 -1 -29 -4 -64z m498 43 c19 -7 62 -16
94 -20 l60 -8 -60 -21 c-80 -29 -126 -66 -157 -127 -15 -27 -22 -47 -17 -44 6
3 10 -3 10 -14 0 -31 56 -71 100 -71 50 0 123 50 168 115 27 39 32 44 28 22
-3 -15 -8 -38 -11 -51 -3 -13 -1 -44 4 -69 4 -26 4 -52 -1 -61 -5 -9 -6 -15
-1 -14 4 1 24 -14 45 -35 26 -26 45 -37 66 -37 20 0 32 -6 36 -17 4 -14 4 -14
3 2 -1 11 11 33 26 49 15 16 30 46 33 68 4 21 7 38 8 38 0 0 21 -6 46 -14 25
-7 79 -17 120 -21 l75 -8 -73 -27 c-131 -51 -206 -108 -237 -183 l-13 -30 -7
31 c-8 40 -64 89 -111 98 -86 16 -192 -48 -275 -167 -23 -33 -44 -58 -46 -55
-2 2 0 23 5 47 18 86 15 182 -8 240 -23 63 -49 91 -103 114 -30 12 -46 13 -75
6 -31 -9 -39 -8 -57 9 -12 11 -26 20 -32 20 -6 0 5 16 24 36 32 35 34 41 32
98 -1 34 2 70 8 80 9 17 12 17 53 -4 33 -17 55 -21 91 -18 41 4 49 2 52 -14 4
-14 5 -13 4 4 -1 38 24 80 42 72 9 -4 32 -12 51 -19z m-5483 -64 c-25 -26 -60
-74 -77 -105 -18 -31 -34 -55 -36 -53 -2 1 3 23 10 47 7 25 17 68 20 95 7 51
7 51 41 47 18 -2 42 1 52 7 37 22 34 10 -10 -38z m-307 -131 l32 -55 -43 40
c-35 32 -101 85 -127 101 -2 2 11 16 30 33 l33 30 21 -47 c12 -26 36 -72 54
-102z m-431 80 c-17 -23 -24 -45 -24 -79 0 -120 137 -199 348 -202 l82 -1 -45
-14 c-25 -8 -58 -12 -75 -9 -18 3 -25 2 -17 -3 9 -6 0 -13 -28 -25 -40 -15
-40 -15 -69 13 -27 28 -28 29 -7 33 11 2 -5 2 -36 -1 -37 -3 -58 -1 -58 6 0
18 -61 72 -109 96 -57 29 -134 46 -209 46 l-57 0 65 24 c100 35 150 64 199
116 50 52 78 52 40 0z m1681 20 c-8 -5 -22 -9 -30 -9 -10 0 -8 3 5 9 27 12 43
12 25 0z m5929 -14 c7 -8 8 -17 3 -20 -6 -3 -12 3 -15 14 -6 24 -4 25 12 6z
m-3824 -36 c-8 -16 -15 -45 -15 -65 0 -98 94 -169 269 -201 l93 -17 -67 -28
-67 -29 -36 31 c-26 23 -42 30 -63 27 -24 -4 -33 2 -53 31 -52 78 -163 119
-326 121 l-65 1 83 25 c97 28 149 53 194 93 27 23 45 34 66 40 1 1 -4 -12 -13
-29z m-594 -7 c13 -16 12 -17 -3 -4 -10 7 -18 15 -18 17 0 8 8 3 21 -13z
m-5351 -108 c0 -7 13 -39 30 -71 16 -32 30 -61 30 -63 0 -3 -13 8 -30 24 -16
16 -30 35 -30 43 0 8 -14 42 -31 76 l-31 61 31 -29 c17 -17 31 -35 31 -41z
m-177 13 c-3 -16 -11 -28 -19 -28 -10 0 -9 7 4 29 20 35 22 35 15 -1z m9813
21 c4 -7 24 -9 50 -6 39 4 44 2 44 -15 0 -39 31 -83 80 -117 49 -34 50 -35 33
-55 -18 -21 -18 -21 3 -3 20 16 25 16 80 2 32 -8 94 -15 139 -16 44 0 76 -2
70 -4 -163 -52 -188 -58 -197 -41 -13 24 -67 48 -93 42 -17 -4 -28 3 -53 38
-17 24 -28 47 -24 51 4 5 2 5 -4 2 -7 -4 -37 5 -68 19 -45 20 -78 27 -173 32
l-118 7 55 14 c30 8 78 24 105 37 60 27 62 27 71 13z m-6016 -26 c0 -22 -17
-50 -25 -42 -5 6 14 59 22 59 1 0 3 -8 3 -17z m170 -23 c0 -8 11 -36 23 -61
20 -41 21 -45 5 -35 -10 6 -18 18 -18 27 0 8 -10 36 -23 61 -20 40 -21 44 -5
34 10 -6 18 -18 18 -26z m3611 -23 c-10 -9 -11 -8 -5 6 3 10 9 15 12 12 3 -3
0 -11 -7 -18z m219 -79 c20 -40 20 -42 2 -23 -19 19 -39 65 -29 65 3 0 15 -19
27 -42z m-7210 -78 c0 -33 -8 -35 -94 -24 l-48 7 64 23 c81 29 78 29 78 -6z
m3799 -43 c1 -14 -3 -16 -18 -7 -11 5 -41 10 -68 10 l-48 1 49 19 c27 11 54
24 60 30 11 11 23 -13 25 -53z m3789 9 l2 -33 -51 8 c-54 9 -76 19 -43 19 14
1 78 29 89 40 1 0 2 -15 3 -34z m-5345 -64 c-3 -12 -9 -22 -14 -22 -5 0 -3 11
3 25 13 30 20 28 11 -3z m7590 -40 c-3 -12 -9 -22 -14 -22 -12 0 -11 7 2 32
13 25 20 19 12 -10z m-9082 -58 c6 -7 3 -16 -7 -25 -13 -11 -15 -24 -10 -67 4
-30 11 -63 16 -73 10 -17 8 -17 -25 2 -35 21 -36 22 -18 43 18 21 18 21 -3 3
-15 -12 -30 -15 -52 -11 -26 5 -36 1 -60 -22 -28 -29 -29 -29 -127 -24 l-98 5
74 19 c41 10 96 30 122 43 65 32 134 97 149 140 l13 34 9 -28 c5 -15 13 -33
17 -39z m1033 44 c12 -46 8 -50 -31 -29 -21 11 -49 24 -63 29 -23 10 -22 10
13 10 20 -1 40 2 44 5 13 14 31 6 37 -15z m3799 -56 c-4 -10 -9 -10 -22 2 -10
9 -35 22 -57 30 l-39 15 35 0 c19 1 42 6 50 11 12 7 18 3 26 -17 7 -15 9 -33
7 -41z m-1049 -38 c-19 -28 -14 -71 15 -127 10 -20 14 -34 7 -30 -6 4 -26 17
-45 30 -35 24 -94 30 -121 13 -10 -6 -21 -4 -35 8 -20 17 -20 17 -1 -6 11 -12
17 -25 13 -28 -3 -3 -40 -3 -83 1 l-78 8 55 17 c96 30 206 106 242 168 l20 34
13 -32 c12 -27 11 -35 -2 -56z m4836 77 c0 -5 3 -23 7 -42 l6 -33 -30 22 c-17
12 -41 26 -54 31 l-24 10 25 1 c14 0 32 5 40 10 19 12 30 13 30 1z m-1037 -86
c-17 -25 -17 -93 0 -126 l14 -25 -47 25 c-41 22 -53 24 -86 16 -22 -6 -43 -19
-49 -30 -8 -16 -16 -19 -35 -14 -14 4 -50 8 -80 9 l-55 1 57 18 c31 10 77 30
103 45 26 14 51 23 56 20 5 -3 9 -2 7 3 -1 4 17 28 40 53 24 24 45 54 48 67 6
23 7 22 23 -9 14 -28 15 -36 4 -53z m-6127 -25 c-1 -55 -3 -59 -21 -53 -11 3
-31 7 -45 8 -14 1 -33 3 -42 3 -30 3 -20 19 26 41 24 12 51 30 61 41 10 11 19
20 20 20 2 0 2 -27 1 -60z m3801 -11 l-2 -70 -35 7 c-19 4 -57 10 -85 13 l-50
6 68 33 c37 19 75 44 83 58 9 13 18 24 20 24 2 0 2 -32 1 -71z m3795 -17 c-4
-70 -5 -74 -25 -67 -12 4 -51 10 -87 14 l-65 6 68 33 c37 18 77 46 89 62 12
17 22 29 23 27 0 -1 -1 -35 -3 -75z"/>
<path d="M6660 4906 c0 -2 8 -10 18 -17 15 -13 16 -12 3 4 -13 16 -21 21 -21
13z"/>
<path d="M3270 4726 c0 -2 8 -10 18 -17 15 -13 16 -12 3 4 -13 16 -21 21 -21
13z"/>
<path d="M2882 4620 c0 -14 2 -19 5 -12 2 6 2 18 0 25 -3 6 -5 1 -5 -13z"/>
<path d="M3223 4553 c15 -2 37 -2 50 0 12 2 0 4 -28 4 -27 0 -38 -2 -22 -4z"/>
<path d="M3268 4523 c7 -3 16 -2 19 1 4 3 -2 6 -13 5 -11 0 -14 -3 -6 -6z"/>
<path d="M7021 4556 l-24 -31 28 27 c16 15 27 29 24 31 -2 3 -15 -10 -28 -27z"/>
<path d="M7070 4396 c0 -2 8 -10 18 -17 15 -13 16 -12 3 4 -13 16 -21 21 -21
13z"/>
<path d="M1738 1883 c7 -3 16 -2 19 1 4 3 -2 6 -13 5 -11 0 -14 -3 -6 -6z"/>
<path d="M1564 1748 l-19 -23 23 19 c21 18 27 26 19 26 -2 0 -12 -10 -23 -22z"/>
<path d="M1872 1575 c0 -16 2 -22 5 -12 2 9 2 23 0 30 -3 6 -5 -1 -5 -18z"/>
<path d="M2113 1515 c0 -22 2 -30 4 -17 2 12 2 30 0 40 -3 9 -5 -1 -4 -23z"/>
<path d="M1910 1406 c0 -2 8 -10 18 -17 15 -13 16 -12 3 4 -13 16 -21 21 -21
13z"/>
<path d="M5692 1570 c0 -14 2 -19 5 -12 2 6 2 18 0 25 -3 6 -5 1 -5 -13z"/>
<path d="M9235 1630 c10 -11 20 -20 23 -20 3 0 -3 9 -13 20 -10 11 -20 20 -23
20 -3 0 3 -9 13 -20z"/>
<path d="M6060 1146 c0 -2 8 -10 18 -17 15 -13 16 -12 3 4 -13 16 -21 21 -21
13z"/>
<path d="M2401 5364 c0 -11 3 -14 6 -6 3 7 2 16 -1 19 -3 4 -6 -2 -5 -13z"/>
<path d="M2401 5314 c0 -11 3 -14 6 -6 3 7 2 16 -1 19 -3 4 -6 -2 -5 -13z"/>
<path d="M5570 5316 c0 -2 8 -10 18 -17 15 -13 16 -12 3 4 -13 16 -21 21 -21
13z"/>
<path d="M2123 5303 c9 -2 23 -2 30 0 6 3 -1 5 -18 5 -16 0 -22 -2 -12 -5z"/>
<path d="M3952 5270 c0 -19 2 -27 5 -17 2 9 2 25 0 35 -3 9 -5 1 -5 -18z"/>
<path d="M4113 5273 c9 -2 23 -2 30 0 6 3 -1 5 -18 5 -16 0 -22 -2 -12 -5z"/>
<path d="M2062 5245 c0 -16 2 -22 5 -12 2 9 2 23 0 30 -3 6 -5 -1 -5 -18z"/>
<path d="M2260 5246 c0 -2 8 -10 18 -17 15 -13 16 -12 3 4 -13 16 -21 21 -21
13z"/>
<path d="M4192 5210 c0 -14 2 -19 5 -12 2 6 2 18 0 25 -3 6 -5 1 -5 -13z"/>
<path d="M4498 5153 c7 -3 16 -2 19 1 4 3 -2 6 -13 5 -11 0 -14 -3 -6 -6z"/>
<path d="M2213 5143 c9 -2 25 -2 35 0 9 3 1 5 -18 5 -19 0 -27 -2 -17 -5z"/>
<path d="M4670 5086 c0 -2 7 -7 16 -10 8 -3 12 -2 9 4 -6 10 -25 14 -25 6z"/>
<path d="M6048 5083 c7 -3 16 -2 19 1 4 3 -2 6 -13 5 -11 0 -14 -3 -6 -6z"/>
<path d="M4701 5044 c0 -11 3 -14 6 -6 3 7 2 16 -1 19 -3 4 -6 -2 -5 -13z"/>
<path d="M4322 5010 c0 -14 2 -19 5 -12 2 6 2 18 0 25 -3 6 -5 1 -5 -13z"/>
<path d="M4679 5003 c-13 -16 -12 -17 4 -4 16 13 21 21 13 21 -2 0 -10 -8 -17
-17z"/>
<path d="M5830 5016 c0 -2 8 -10 18 -17 15 -13 16 -12 3 4 -13 16 -21 21 -21
13z"/>
<path d="M4268 4943 c6 -2 18 -2 25 0 6 3 1 5 -13 5 -14 0 -19 -2 -12 -5z"/>
<path d="M4418 4943 c6 -2 18 -2 25 0 6 3 1 5 -13 5 -14 0 -19 -2 -12 -5z"/>
<path d="M8231 4744 c0 -11 3 -14 6 -6 3 7 2 16 -1 19 -3 4 -6 -2 -5 -13z"/>
<path d="M4479 4693 c-13 -16 -12 -17 4 -4 16 13 21 21 13 21 -2 0 -10 -8 -17
-17z"/>
<path d="M8235 4580 c10 -11 20 -20 23 -20 3 0 -3 9 -13 20 -10 11 -20 20 -23
20 -3 0 3 -9 13 -20z"/>
<path d="M8448 4483 c12 -2 30 -2 40 0 9 3 -1 5 -23 4 -22 0 -30 -2 -17 -4z"/>
<path d="M8258 1603 c12 -2 30 -2 40 0 9 3 -1 5 -23 4 -22 0 -30 -2 -17 -4z"/>
<path d="M4258 1553 c6 -2 18 -2 25 0 6 3 1 5 -13 5 -14 0 -19 -2 -12 -5z"/>
<path d="M8299 1353 l-24 -28 28 24 c15 14 27 26 27 28 0 8 -8 1 -31 -24z"/>
<path d="M3011 1354 c0 -11 3 -14 6 -6 3 7 2 16 -1 19 -3 4 -6 -2 -5 -13z"/>
<path d="M4492 1320 c0 -19 2 -27 5 -17 2 9 2 25 0 35 -3 9 -5 1 -5 -18z"/>
<path d="M8372 1275 c0 -16 2 -22 5 -12 2 9 2 23 0 30 -3 6 -5 -1 -5 -18z"/>
<path d="M10649 1183 c-13 -16 -12 -17 4 -4 16 13 21 21 13 21 -2 0 -10 -8
-17 -17z"/>
<path d="M4108 1153 c7 -3 16 -2 19 1 4 3 -2 6 -13 5 -11 0 -14 -3 -6 -6z"/>
<path d="M2689 1093 c-13 -16 -12 -17 4 -4 16 13 21 21 13 21 -2 0 -10 -8 -17
-17z"/>
<path d="M8785 1090 c10 -11 20 -20 23 -20 3 0 -3 9 -13 20 -10 11 -20 20 -23
20 -3 0 3 -9 13 -20z"/>
<path d="M8143 1093 c9 -2 23 -2 30 0 6 3 -1 5 -18 5 -16 0 -22 -2 -12 -5z"/>
<path d="M8338 1083 c6 -2 18 -2 25 0 6 3 1 5 -13 5 -14 0 -19 -2 -12 -5z"/>
<path d="M8488 1083 c6 -2 18 -2 25 0 6 3 1 5 -13 5 -14 0 -19 -2 -12 -5z"/>
<path d="M6900 1036 c0 -2 8 -10 18 -17 15 -13 16 -12 3 4 -13 16 -21 21 -21
13z"/>
<path d="M8169 973 c-13 -16 -12 -17 4 -4 16 13 21 21 13 21 -2 0 -10 -8 -17
-17z"/>
<path d="M8748 983 c7 -3 16 -2 19 1 4 3 -2 6 -13 5 -11 0 -14 -3 -6 -6z"/>
<path d="M10340 986 c0 -2 8 -10 18 -17 15 -13 16 -12 3 4 -13 16 -21 21 -21
13z"/>
<path d="M10679 973 c-13 -16 -12 -17 4 -4 16 13 21 21 13 21 -2 0 -10 -8 -17
-17z"/>
<path d="M6811 954 c0 -11 3 -14 6 -6 3 7 2 16 -1 19 -3 4 -6 -2 -5 -13z"/>
<path d="M8312 935 c0 -16 2 -22 5 -12 2 9 2 23 0 30 -3 6 -5 -1 -5 -18z"/>
<path d="M8748 953 c7 -3 16 -2 19 1 4 3 -2 6 -13 5 -11 0 -14 -3 -6 -6z"/>
<path d="M6698 943 c7 -3 16 -2 19 1 4 3 -2 6 -13 5 -11 0 -14 -3 -6 -6z"/>
<path d="M8230 896 c0 -2 8 -10 18 -17 15 -13 16 -12 3 4 -13 16 -21 21 -21
13z"/>
<path d="M4009 853 c-13 -16 -12 -17 4 -4 16 13 21 21 13 21 -2 0 -10 -8 -17
-17z"/>
<path d="M8582 820 c0 -14 2 -19 5 -12 2 6 2 18 0 25 -3 6 -5 1 -5 -13z"/>
<path d="M8779 823 c-13 -16 -12 -17 4 -4 16 13 21 21 13 21 -2 0 -10 -8 -17
-17z"/>
<path d="M10525 790 c10 -11 20 -20 23 -20 3 0 -3 9 -13 20 -10 11 -20 20 -23
20 -3 0 3 -9 13 -20z"/>
<path d="M10719 733 c-13 -16 -12 -17 4 -4 9 7 17 15 17 17 0 8 -8 3 -21 -13z"/>
<path d="M10410 596 c0 -2 8 -10 18 -17 15 -13 16 -12 3 4 -13 16 -21 21 -21
13z"/>
</g>
</svg>
