<?xml version='1.0' encoding='utf-8'?>
<!DOCTYPE svg PUBLIC '-//W3C//DTD SVG 1.1//EN' 'http://www.w3.org/Graphics/SVG/1.1/DTD/svg11.dtd'>
<svg version="1.1" xmlns="http://www.w3.org/2000/svg" viewBox="0 0 512 512" xmlns:xlink="http://www.w3.org/1999/xlink" enable-background="new 0 0 512 512">
  <g>
    <g fill="#231F20">
      <path d="m490.6,384.6h-469.2c-5.8,0-10.4,4.7-10.4,10.4 0,5.8 4.7,10.4 10.4,10.4h469.1c5.8,0 10.4-4.7 10.4-10.4 0.1-5.7-4.6-10.4-10.3-10.4z"/>
      <path d="m65.3,367.7h381.4c5.8,0 10.4-4.7 10.4-10.4v-240.4c0-5.8-4.7-10.4-10.4-10.4h-381.4c-5.8,0-10.4,4.7-10.4,10.4v240.4c0,5.8 4.6,10.4 10.4,10.4zm10.4-240.3h360.6v219.5h-360.6v-219.5z"/>
      <path d="m263.3,219.2v-38.2c6.3,2.7 10.2,7.9 11.7,15.6l24.7-3.2c-1.7-9.8-5.6-17.6-11.7-23.4-6.1-5.8-14.4-9.4-24.7-10.6v-9.7h-14.2v9.7c-11.2,1.1-20.2,5.3-26.9,12.6-6.7,7.3-10.1,16.2-10.1,26.9 0,10.6 3,19.5 8.9,26.9 6,7.4 15.3,12.9 28.1,16.6v40.9c-3.5-1.7-6.7-4.4-9.6-8.2-2.9-3.8-4.8-8.3-5.9-13.5l-25.5,2.7c2,12.8 6.4,22.8 13.5,29.8 7,7 16.2,11.2 27.5,12.6v17.8h14.2v-18.3c12.7-1.8 22.6-6.8 29.8-14.9 7.1-8.1 10.7-18 10.7-29.8 0-10.6-2.8-19.2-8.5-25.9-5.7-6.7-16.3-12.2-32-16.4zm-14.1-4.7c-4.2-1.8-7.4-4.2-9.5-7.2-2.1-3-3.1-6.2-3.1-9.6 0-3.8 1.1-7.2 3.4-10.4 2.3-3.1 5.3-5.3 9.2-6.6v33.8zm26.1,63.4c-3.1,3.6-7,5.9-11.9,6.8v-38.1c5.9,1.7 10.1,4.1 12.7,7.3 2.6,3.2 3.9,6.9 3.9,11.3-0.2,4.8-1.7,9.1-4.7,12.7z"/>
    </g>
  </g>
</svg>
